<?xml version="1.0" encoding="UTF-8"?>
<!DOCTYPE svg PUBLIC "-//W3C//DTD SVG 1.1//EN" "http://www.w3.org/Graphics/SVG/1.1/DTD/svg11.dtd">
<!-- Creator: CorelDRAW -->
<svg xmlns="http://www.w3.org/2000/svg" xml:space="preserve" width="512px" height="512px" version="1.1" style="shape-rendering:geometricPrecision; text-rendering:geometricPrecision; image-rendering:optimizeQuality; fill-rule:evenodd; clip-rule:evenodd"
viewBox="0 0 512 512"
 xmlns:xlink="http://www.w3.org/1999/xlink"
 xmlns:xodm="http://www.corel.com/coreldraw/odm/2003">
 <defs>
  <style type="text/css">
   <![CDATA[
    .fil7 {fill:none;fill-rule:nonzero}
    .fil10 {fill:#BDBFC1}
    .fil8 {fill:#0F5298}
    .fil9 {fill:#8ECAE6}
    .fil5 {fill:black;fill-rule:nonzero}
    .fil6 {fill:#0F5298;fill-rule:nonzero}
    .fil2 {fill:#3C99DC;fill-rule:nonzero}
    .fil4 {fill:#8ECAE6;fill-rule:nonzero}
    .fil3 {fill:#E6E6E6;fill-rule:nonzero}
    .fil0 {fill:#EDEBFF;fill-rule:nonzero}
    .fil1 {fill:#FB8500;fill-rule:nonzero}
   ]]>
  </style>
    <clipPath id="id0" style="clip-rule:nonzero">
     <path d="M412.09 260.65c0,-1.4 -0.18,-2.81 -0.54,-4.18l0 0c-0.36,-1.33 -0.89,-2.64 -1.61,-3.88l0 0 -30.9 -53.53 0 0c-1.49,-2.58 -3.53,-4.54 -5.84,-5.87 -2.51,-1.45 -5.33,-2.17 -8.15,-2.17 -2.82,0 -5.64,0.72 -8.14,2.17l0 0c-2.33,1.34 -4.36,3.3 -5.85,5.87l-30.9 53.53 0 0c-1.2,2.08 -1.91,4.37 -2.1,6.69 -0.2,2.33 0.11,4.71 0.94,6.95 1.18,3.19 3.27,5.83 5.92,7.68 2.63,1.84 5.83,2.88 9.23,2.88l0 0 62.19 0 0.01 0c4.38,-0.09 8.3,-1.94 11.13,-4.84 2.86,-2.94 4.61,-6.95 4.61,-11.3z"/>
    </clipPath>
    <clipPath id="id1" style="clip-rule:nonzero">
     <path d="M462.71 203.28c0,-0.95 -0.12,-1.9 -0.37,-2.84l0 0c-0.24,-0.9 -0.61,-1.79 -1.09,-2.63l0 0 -20.99 -36.35 0 0c-1.01,-1.75 -2.39,-3.08 -3.96,-3.99 -1.7,-0.98 -3.62,-1.47 -5.54,-1.47 -1.91,0 -3.83,0.49 -5.53,1.47l0 0c-1.57,0.91 -2.96,2.24 -3.97,3.99l-20.98 36.35 0 0c-0.81,1.41 -1.29,2.97 -1.42,4.54 -0.14,1.59 0.07,3.2 0.63,4.72 0.81,2.17 2.23,3.96 4.02,5.21 1.79,1.25 3.96,1.96 6.27,1.96l0 0 42.23 0 0.01 0c2.97,-0.06 5.64,-1.31 7.56,-3.29 1.94,-1.99 3.13,-4.71 3.13,-7.67z"/>
    </clipPath>
 </defs>
 <g id="Layer_x0020_1">
  <metadata id="CorelCorpID_0Corel-Layer"/>
  <path class="fil0" d="M365.52 143.78c77.82,-46.61 110.41,10.07 112.13,13.19 35.83,54.48 25.12,152.83 11.92,197.18 -0.06,0.2 -15.09,37.46 -14.28,62.62 0.35,10.86 1.64,26.47 -11.79,28.12l-376.68 0c-2.93,0.75 -27.3,-5.87 -37.57,-26.02 -3.15,-3.9 -50.02,-63.56 -36.96,-141.93 16.48,-98.87 65.42,-131.79 154.24,-94.98 57.09,23.67 150.84,-9.34 198.99,-38.18z"/>
  <g id="_2077870521152">
   <path class="fil1" d="M91.11 319.42l0 -0.03 0 -11.57c0,-0.56 0.45,-1 1,-1l0.03 0 16.71 0c0.55,0 1,0.44 1,1l0 0.02 0 11.58c0,0.55 -0.45,1 -1,1l-0.03 0 -16.71 0c-0.55,0 -1,-0.45 -1,-1z"/>
   <path class="fil1" d="M177.83 292.46l-41 0 -0.03 0c-0.55,0 -1,-0.45 -1,-1l0 -10.44 0 -0.02c0,-0.55 0.45,-1 1,-1l41 0 0.03 0c0.55,0 1,0.45 1,1l0 10.43 0 0.03c0,0.55 -0.45,1 -1,1z"/>
   <path class="fil1" d="M223.52 307.82l0 11.57 0 0.03c0,0.55 -0.45,1 -1,1l-16.72 0 -0.02 0c-0.56,0 -1,-0.45 -1,-1l0 -11.58 0 -0.02c0,-0.56 0.44,-1 1,-1l16.71 0 0.03 0c0.55,0 1,0.44 1,1z"/>
   <path class="fil2" d="M120.39 290.46l73.85 0c3.45,0 6.59,1.41 8.85,3.68 2.27,2.27 3.69,5.41 3.69,8.86l0 102.31c0,3.44 -1.42,6.57 -3.69,8.85l0 0 -0.05 0.05c-2.26,2.24 -5.38,3.63 -8.8,3.63l-73.85 0c-3.45,0 -6.58,-1.41 -8.85,-3.68l-0.01 0 -0.05 -0.06c-2.24,-2.26 -3.63,-5.37 -3.63,-8.79l0 -102.31c0,-3.18 1.37,-6.75 3.73,-8.91 2.28,-2.24 5.39,-3.63 8.81,-3.63z"/>
   <path class="fil2" d="M190.28 282l-65.91 0 -0.03 0c-0.55,0 -0.99,-0.45 -0.99,-1l0 -28.58c0,-8.1 3.3,-15.47 8.63,-20.82l0.05 -0.06 0 0 0.01 0c5.36,-5.36 12.75,-8.69 20.88,-8.69l8.79 0c8.1,0 15.47,3.31 20.83,8.63l0.06 0.06 -0.01 0 0.01 0c5.36,5.36 8.68,12.76 8.68,20.88l0 28.55 0 0.03c0,0.55 -0.45,1 -1,1z"/>
   <path class="fil3" d="M157.31 315.94c10.55,0 20.11,4.28 27.02,11.19 6.91,6.92 11.19,16.47 11.19,27.02 0,10.55 -4.28,20.1 -11.19,27.02 -6.91,6.91 -16.47,11.19 -27.02,11.19 -10.55,0 -20.1,-4.28 -27.01,-11.19 -6.92,-6.92 -11.19,-16.47 -11.19,-27.02 0,-10.55 4.27,-20.1 11.19,-27.02 6.91,-6.91 16.46,-11.19 27.01,-11.19z"/>
   <path class="fil1" d="M155.37 350.52l15.38 0c0.35,0 0.63,0.28 0.63,0.62 0,0.13 -0.04,0.26 -0.11,0.35l-16.79 29.08 0 0.01c-0.17,0.29 -0.55,0.4 -0.85,0.23l-0.04 -0.03 -5.17 -2.98 0 0c-0.3,-0.17 -0.4,-0.56 -0.23,-0.86l0.04 -0.05 11.03 -19.1 -15.39 0c-0.34,0 -0.62,-0.28 -0.62,-0.63 0,-0.13 0.04,-0.25 0.11,-0.35l16.78 -29.08 0 0c0.18,-0.3 0.56,-0.41 0.86,-0.23l0.04 0.02 5.17 2.99 0 0c0.3,0.17 0.4,0.55 0.23,0.85l-0.04 0.05 -11.03 19.11z"/>
   <path class="fil4" d="M147.13 265.81c-0.53,-0.14 -1.08,0.18 -1.22,0.71 -0.14,0.53 0.18,1.08 0.71,1.22 0.03,0.01 12.16,3.15 21.45,-0.02 0.53,-0.18 0.81,-0.74 0.63,-1.27 -0.18,-0.52 -0.75,-0.8 -1.27,-0.62 -8.73,2.98 -20.27,-0.01 -20.3,-0.02z"/>
   <path class="fil5" d="M146.19 243.42c-0.9,-0.89 -2.13,-1.45 -3.49,-1.45 -1.36,0 -2.6,0.55 -3.49,1.44l0 0.01c-0.89,0.89 -1.45,2.13 -1.45,3.49 0,1.36 0.56,2.59 1.45,3.48l0 0.01c0.89,0.89 2.13,1.44 3.49,1.44 1.36,0 2.59,-0.55 3.49,-1.45 0.89,-0.89 1.44,-2.12 1.44,-3.48 0,-1.36 -0.55,-2.6 -1.44,-3.49z"/>
   <path class="fil4" d="M142.7 238.34c2.36,0 4.5,0.96 6.05,2.51 1.55,1.55 2.51,3.7 2.51,6.06 0,2.36 -0.96,4.5 -2.51,6.05 -1.55,1.55 -3.69,2.51 -6.05,2.51 -2.36,0 -4.5,-0.96 -6.05,-2.51l-0.01 0c-1.55,-1.55 -2.51,-3.69 -2.51,-6.05 0,-2.37 0.96,-4.51 2.51,-6.06l0.01 0c1.55,-1.55 3.69,-2.51 6.05,-2.51z"/>
   <path class="fil5" d="M175.42 243.41c-0.89,-0.89 -2.13,-1.44 -3.49,-1.44 -1.36,0 -2.6,0.56 -3.49,1.45 -0.89,0.89 -1.44,2.13 -1.44,3.49 0,1.36 0.55,2.59 1.44,3.48 0.89,0.9 2.13,1.45 3.49,1.45 1.36,0 2.6,-0.55 3.49,-1.44l0 -0.01c0.89,-0.89 1.44,-2.12 1.44,-3.48 0,-1.36 -0.55,-2.6 -1.44,-3.49l0 -0.01z"/>
   <path class="fil4" d="M171.93 238.34c2.36,0 4.5,0.96 6.05,2.51l0 0c1.55,1.55 2.51,3.69 2.51,6.06 0,2.36 -0.96,4.5 -2.51,6.05l0 0c-1.55,1.55 -3.69,2.51 -6.05,2.51 -2.37,0 -4.51,-0.96 -6.06,-2.51 -1.55,-1.55 -2.51,-3.69 -2.51,-6.05 0,-2.36 0.96,-4.51 2.51,-6.06 1.55,-1.55 3.69,-2.51 6.06,-2.51z"/>
   <path class="fil6" d="M82.44 371.21c-2.93,0 -5.6,-1.2 -7.53,-3.14l0.7 -0.7 -0.7 0.7 0 0 -0.01 0c-1.93,-1.93 -3.13,-4.6 -3.13,-7.53l0 -52.72c0,-0.56 0.45,-1 1,-1l0.03 0 19.31 0c0.55,0 1,0.44 1,1l0 0.02 0 52.7c0,2.93 -1.2,5.6 -3.13,7.53 -1.93,1.94 -4.6,3.14 -7.54,3.14z"/>
   <path class="fil4" d="M71.77 339.55l0 -2.21c9.49,3.85 18.3,1.16 21.34,-0.02l0 2.2c-3.99,1.34 -12.31,3.26 -21.34,0.03z"/>
   <path class="fil6" d="M231.96 371.21c-2.93,0 -5.6,-1.2 -7.53,-3.14l0.7 -0.7 -0.71 0.7 0 0 0 0c-1.93,-1.93 -3.13,-4.6 -3.13,-7.53l0 -52.72c0,-0.56 0.45,-1 1,-1l0.02 0 19.32 0c0.55,0 1,0.44 1,1l0 0.02 0 52.7c0,2.93 -1.2,5.6 -3.13,7.53 -1.93,1.94 -4.61,3.14 -7.54,3.14z"/>
   <path class="fil4" d="M221.29 339.55l0 -2.21c9.49,3.85 18.3,1.16 21.34,-0.02l0 2.2c-3.99,1.34 -12.31,3.26 -21.34,0.03z"/>
   <g>
    <path class="fil7" d="M266.54 431.42c-0.42,0.29 -0.56,0.87 -0.3,1.32"/>
    <path class="fil2" d="M260.37 419.98c2.62,-2.58 4.4,-5.88 5.16,-9.43 0.74,-3.44 0.51,-7.14 -0.87,-10.66l0 -0.01c-1.37,-3.52 -3.71,-6.39 -6.58,-8.43l0 -0.01c-2.74,-1.93 -5.98,-3.12 -9.34,-3.39l-4.67 -11.96 -0.83 -2.12 -1.36 1.84c-0.64,0.87 -1.41,1.65 -2.28,2.32 -0.85,0.65 -1.8,1.19 -2.84,1.6l-0.01 0c-1.05,0.41 -2.12,0.65 -3.17,0.75 -1.09,0.1 -2.19,0.04 -3.26,-0.17l-2.24 -0.43 0.83 2.13 4.67 11.95c-2.3,2.49 -3.88,5.55 -4.58,8.83 -0.74,3.44 -0.51,7.14 0.87,10.67l0 0c1.38,3.52 3.71,6.39 6.58,8.43l0 0c2.96,2.1 6.51,3.32 10.19,3.44l1.91 0.07 -0.7 -1.78 -5.36 -13.74 10.47 -4.08 5.35 13.74 0.7 1.78 1.36 -1.34z"/>
    <path class="fil1" d="M244.88 364.07c-1.33,-3.41 -3.92,-5.96 -7.03,-7.32 -3.1,-1.37 -6.73,-1.55 -10.14,-0.22 -3.41,1.33 -5.97,3.93 -7.33,7.04 -1.36,3.09 -1.54,6.71 -0.22,10.11l0.01 0.04c1.33,3.41 3.92,5.96 7.03,7.32 3.11,1.36 6.73,1.54 10.14,0.21l0.01 0c3.4,-1.33 5.96,-3.93 7.32,-7.03 1.36,-3.11 1.54,-6.73 0.21,-10.14l0 -0.01z"/>
    <path class="fil6" d="M241.41 365.43c-0.96,-2.45 -2.82,-4.29 -5.06,-5.27 -2.23,-0.98 -4.84,-1.11 -7.29,-0.15 -2.45,0.95 -4.29,2.82 -5.27,5.05 -0.97,2.23 -1.1,4.83 -0.15,7.28l0 0.02c0.96,2.45 2.82,4.29 5.06,5.27 2.23,0.97 4.84,1.1 7.29,0.15l0 -0.01c2.45,-0.95 4.29,-2.82 5.27,-5.05 0.98,-2.23 1.1,-4.84 0.15,-7.29l0 0z"/>
   </g>
   <g>
    <path class="fil2" d="M134.74 402.95c-2.82,2.36 -6.26,3.82 -9.87,4.24 -3.5,0.41 -7.15,-0.17 -10.53,-1.87l-0.01 0c-3.37,-1.7 -6.01,-4.3 -7.77,-7.36l-0.01 0c-1.67,-2.91 -2.54,-6.24 -2.49,-9.62l-11.46 -5.78 -2.04 -1.02 1.96 -1.18c0.93,-0.56 1.78,-1.25 2.53,-2.05 0.72,-0.78 1.36,-1.68 1.86,-2.68l0 0c0.51,-1.01 0.85,-2.05 1.05,-3.09 0.2,-1.08 0.25,-2.18 0.14,-3.26l-0.22 -2.27 2.04 1.03 11.46 5.77c2.69,-2.05 5.89,-3.33 9.22,-3.72 3.5,-0.41 7.15,0.17 10.54,1.88l0 0c3.37,1.7 6.01,4.3 7.77,7.35l0 0c1.81,3.15 2.69,6.79 2.46,10.46l-0.11 1.91 -1.71 -0.86 -13.16 -6.64 -5.06 10.03 13.17 6.64 1.71 0.86 -1.47 1.23z"/>
    <path class="fil1" d="M80.55 382.24c-3.26,-1.65 -5.56,-4.47 -6.62,-7.69 -1.07,-3.22 -0.9,-6.86 0.75,-10.12 1.64,-3.27 4.47,-5.57 7.69,-6.63 3.21,-1.06 6.83,-0.9 10.09,0.74l0.04 0.01c3.26,1.64 5.56,4.47 6.62,7.69 1.06,3.22 0.89,6.85 -0.75,10.12l-0.01 0c-1.64,3.27 -4.46,5.57 -7.69,6.63 -3.22,1.06 -6.84,0.89 -10.11,-0.75l-0.01 0z"/>
    <path class="fil6" d="M82.23 378.91c-2.35,-1.18 -4,-3.21 -4.76,-5.53 -0.77,-2.32 -0.65,-4.93 0.53,-7.28 1.19,-2.35 3.22,-4 5.54,-4.76 2.31,-0.76 4.91,-0.65 7.25,0.53l0.03 0.01c2.35,1.18 4,3.21 4.76,5.53 0.76,2.31 0.64,4.92 -0.54,7.27l0 0.01c-1.19,2.34 -3.22,4 -5.53,4.76 -2.32,0.76 -4.93,0.64 -7.28,-0.54l0 0z"/>
   </g>
   <path class="fil6" d="M122.38 383.23l112.51 0c1.89,0 3.61,0.77 4.84,2.01 1.25,1.24 2.02,2.96 2.02,4.85 0,1.89 -0.77,3.6 -2.02,4.84l0 0c-1.24,1.25 -3.06,2.41 -4.94,2.41l-112.51 0c-1.89,0 -3.5,-1.16 -4.74,-2.41l-0.01 0c-1.24,-1.24 -2.01,-2.96 -2.01,-4.84 0,-1.88 0.77,-3.6 2.02,-4.84l-0.01 -0.01c1.24,-1.24 2.96,-2.01 4.85,-2.01z"/>
  </g>
  <g id="_2077870521008">
   <path class="fil4" d="M372.97 398.11l-159.42 -0.58 -0.05 0c-0.12,0 -0.25,-0.16 -0.38,-0.19 -0.83,-0.21 -1.31,-1.48 -1.1,-2.32l0 0 28.94 -113.76c1.83,-7.19 4.99,-13.93 9.69,-18.65l0.03 -0.03 0 0c4.13,-4.13 9.42,-6.7 15.99,-6.7l132.54 0c2.58,0 5.22,0.41 7.78,1.16 4.9,1.44 9.51,4.15 12.9,7.66 3.46,3.6 5.67,8.04 5.67,12.85 0,1.47 -0.21,2.99 -0.66,4.53l-26.31 89.55c-2.1,7.16 -5.26,13.94 -9.95,18.67l-0.09 0.1 0 0c-4.04,4.03 -9.09,7.71 -15.58,7.71z"/>
   <path class="fil2" d="M318.77 310.13c4.49,0 8.57,1.82 11.52,4.77 2.94,2.94 4.77,7.02 4.77,11.52 0,4.5 -1.83,8.57 -4.77,11.52 -2.95,2.95 -7.03,4.77 -11.52,4.77 -4.5,0 -8.58,-1.82 -11.53,-4.77 -2.94,-2.95 -4.77,-7.02 -4.77,-11.52 0,-4.5 1.83,-8.58 4.77,-11.52 2.95,-2.95 7.03,-4.77 11.53,-4.77z"/>
   <path class="fil8" d="M314.01 311.73c4.5,0 8.58,1.82 11.52,4.77 2.95,2.95 4.77,7.02 4.77,11.52 0,4.5 -1.82,8.58 -4.77,11.52 -1.17,1.17 -2.51,2.16 -3.99,2.94 3.39,-0.59 6.42,-2.21 8.75,-4.54 2.94,-2.95 4.77,-7.02 4.77,-11.52 0,-4.5 -1.83,-8.58 -4.77,-11.52 -2.95,-2.95 -7.03,-4.77 -11.52,-4.77 -2.72,0 -5.28,0.66 -7.53,1.84 0.9,-0.16 1.83,-0.24 2.77,-0.24z"/>
  </g>
  <g id="_2077870520144">
   <path class="fil2" d="M47.41 397.05l417.18 0c2.08,0 3.97,0.86 5.33,2.22l0.01 0.01c1.37,1.36 2.22,3.25 2.22,5.33l0 32.54c0,2.08 -0.85,3.97 -2.22,5.34l-0.01 0c-1.36,1.37 -3.25,2.22 -5.33,2.22l-417.18 0c-2.08,0 -3.97,-0.85 -5.33,-2.22l-0.01 0c-1.37,-1.37 -2.22,-3.26 -2.22,-5.34l0 -32.54c0,-2.08 0.85,-3.97 2.22,-5.33l0.01 -0.01c1.36,-1.36 3.25,-2.22 5.33,-2.22z"/>
   <path class="fil9" d="M52.07 432.49l0 0zm-12.22 -27.88l0 32.54c0,2.08 0.85,3.97 2.23,5.34 1.36,1.37 3.25,2.22 5.33,2.22l417.18 0c2.08,0 3.97,-0.85 5.34,-2.22 1.37,-1.37 2.22,-3.26 2.22,-5.34l0 -2.44 -414.74 0c-2.08,0 -3.97,-0.85 -5.34,-2.22 -1.37,-1.37 -2.22,-3.26 -2.22,-5.34l0 -30.1 -2.44 0c-2.08,0 -3.97,0.86 -5.34,2.23 -1.37,1.36 -2.22,3.25 -2.22,5.33z"/>
  </g>
  <g id="_2077870516592">
   <path class="fil2" d="M412.09 260.65c0,-1.4 -0.18,-2.81 -0.54,-4.18l0 0c-0.36,-1.33 -0.89,-2.64 -1.61,-3.88l0 0 -30.9 -53.53 0 0c-1.49,-2.58 -3.53,-4.54 -5.84,-5.87 -2.51,-1.45 -5.33,-2.17 -8.15,-2.17 -2.82,0 -5.64,0.72 -8.14,2.17l0 0c-2.33,1.34 -4.36,3.3 -5.85,5.87l-30.9 53.53 0 0c-1.2,2.08 -1.91,4.37 -2.1,6.69 -0.2,2.33 0.11,4.71 0.94,6.95 1.18,3.19 3.27,5.83 5.92,7.68 2.63,1.84 5.83,2.88 9.23,2.88l0 0 62.19 0 0.01 0c4.38,-0.09 8.3,-1.94 11.13,-4.84 2.86,-2.94 4.61,-6.95 4.61,-11.3z"/>
   <g style="clip-path:url(#id0)">
    <g>
     <path id="_1" class="fil8" d="M318.57 289.22l0 0zm-13.99 -24.21l25.6 -44.35c0,0 -3.57,52.55 58.72,66.13 -2.37,1.48 -5.14,2.36 -8.13,2.42l-0.02 0 -62.18 0.01c-3.4,0 -6.6,-1.05 -9.24,-2.89 -2.64,-1.85 -4.73,-4.49 -5.91,-7.68 -0.83,-2.23 -1.14,-4.61 -0.94,-6.95 0.19,-2.32 0.9,-4.61 2.1,-6.69z"/>
    </g>
   </g>
   <path class="fil7" d="M412.09 260.65c0,-1.4 -0.18,-2.81 -0.54,-4.18l0 0c-0.36,-1.33 -0.89,-2.64 -1.61,-3.88l0 0 -30.9 -53.53 0 0c-1.49,-2.58 -3.53,-4.54 -5.84,-5.87 -2.51,-1.45 -5.33,-2.17 -8.15,-2.17 -2.82,0 -5.64,0.72 -8.14,2.17l0 0c-2.33,1.34 -4.36,3.3 -5.85,5.87l-30.9 53.53 0 0c-1.2,2.08 -1.91,4.37 -2.1,6.69 -0.2,2.33 0.11,4.71 0.94,6.95 1.18,3.19 3.27,5.83 5.92,7.68 2.63,1.84 5.83,2.88 9.23,2.88l0 0 62.19 0 0.01 0c4.38,-0.09 8.3,-1.94 11.13,-4.84 2.86,-2.94 4.61,-6.95 4.61,-11.3z"/>
   <path class="fil4" d="M365.05 208.73c-3.34,0 -6.07,2.73 -6.07,6.07l0 23.47c0,2.72 1.78,4.25 1.78,4.28 4.45,4.07 8.56,0.01 8.57,0.01 1.1,-1.21 1.78,-2.51 1.78,-4.29l0 -23.47c0,-3.33 -2.71,-6.07 -6.06,-6.07z"/>
   <path class="fil4" d="M365.05 247.57c-1.59,0 -3.03,0.64 -4.07,1.68l0 0c-1.05,1.04 -1.69,2.48 -1.69,4.07 0,1.59 0.64,3.04 1.69,4.08l0.04 0.03c1.04,1.02 2.46,1.65 4.03,1.65 1.59,0 3.03,-0.64 4.07,-1.69l0 0.01c1.04,-1.04 1.69,-2.49 1.69,-4.08 0,-1.59 -0.65,-3.03 -1.69,-4.07l-0.04 -0.04c-1.04,-1.01 -2.46,-1.64 -4.03,-1.64z"/>
  </g>
  <g id="_2077870517360">
   <path class="fil2" d="M462.71 203.28c0,-0.95 -0.12,-1.9 -0.37,-2.84l0 0c-0.24,-0.9 -0.61,-1.79 -1.09,-2.63l0 0 -20.99 -36.35 0 0c-1.01,-1.75 -2.39,-3.08 -3.96,-3.99 -1.7,-0.98 -3.62,-1.47 -5.54,-1.47 -1.91,0 -3.83,0.49 -5.53,1.47l0 0c-1.57,0.91 -2.96,2.24 -3.97,3.99l-20.98 36.35 0 0c-0.81,1.41 -1.29,2.97 -1.42,4.54 -0.14,1.59 0.07,3.2 0.63,4.72 0.81,2.17 2.23,3.96 4.02,5.21 1.79,1.25 3.96,1.96 6.27,1.96l0 0 42.23 0 0.01 0c2.97,-0.06 5.64,-1.31 7.56,-3.29 1.94,-1.99 3.13,-4.71 3.13,-7.67z"/>
   <g style="clip-path:url(#id1)">
    <g>
     <path id="_1_0" class="fil8" d="M399.2 222.68l0 0zm-9.5 -16.44l17.38 -30.11c0,0 -2.42,35.68 39.88,44.9 -1.61,1.01 -3.49,1.61 -5.52,1.64l-0.01 0 -42.23 0.01c-2.31,0 -4.48,-0.71 -6.27,-1.96 -1.79,-1.25 -3.21,-3.05 -4.02,-5.22 -0.56,-1.51 -0.77,-3.13 -0.64,-4.71 0.14,-1.58 0.62,-3.14 1.43,-4.55z"/>
    </g>
   </g>
   <path class="fil7" d="M462.71 203.28c0,-0.95 -0.12,-1.9 -0.37,-2.84l0 0c-0.24,-0.9 -0.61,-1.79 -1.09,-2.63l0 0 -20.99 -36.35 0 0c-1.01,-1.75 -2.39,-3.08 -3.96,-3.99 -1.7,-0.98 -3.62,-1.47 -5.54,-1.47 -1.91,0 -3.83,0.49 -5.53,1.47l0 0c-1.57,0.91 -2.96,2.24 -3.97,3.99l-20.98 36.35 0 0c-0.81,1.41 -1.29,2.97 -1.42,4.54 -0.14,1.59 0.07,3.2 0.63,4.72 0.81,2.17 2.23,3.96 4.02,5.21 1.79,1.25 3.96,1.96 6.27,1.96l0 0 42.23 0 0.01 0c2.97,-0.06 5.64,-1.31 7.56,-3.29 1.94,-1.99 3.13,-4.71 3.13,-7.67z"/>
   <path class="fil4" d="M430.76 168.03c-2.26,0 -4.12,1.85 -4.12,4.12l0 15.94c0,1.84 1.21,2.88 1.21,2.9 3.02,2.76 5.81,0 5.82,0 0.75,-0.81 1.21,-1.69 1.21,-2.9l0 -15.94c0,-2.26 -1.84,-4.12 -4.12,-4.12z"/>
   <path class="fil4" d="M430.76 194.4c-1.07,0 -2.05,0.43 -2.76,1.14l0 0c-0.71,0.71 -1.15,1.69 -1.15,2.77 0,1.08 0.44,2.06 1.15,2.76l0.03 0.03c0.7,0.69 1.67,1.12 2.73,1.12 1.08,0 2.06,-0.44 2.77,-1.15l0 0c0.71,-0.7 1.14,-1.68 1.14,-2.76 0,-1.08 -0.43,-2.06 -1.14,-2.77l-0.03 -0.02c-0.7,-0.7 -1.67,-1.12 -2.74,-1.12z"/>
  </g>
  <g id="_2077870517984">
   <path class="fil9" d="M61.3 222.71c24.4,-9 36.41,13.73 35.66,32.88 -0.54,13.86 -2.17,18.68 -8.46,30.89 -4.03,-1.69 -26.82,-17.99 -32.04,-24.84 -4.88,-6.41 -6.75,-12.8 -6.89,-19.65 1.15,-7.99 4.41,-15.52 11.73,-19.28z"/>
   <path class="fil2" d="M88.89 285.51c-0.06,0.42 -0.45,0.71 -0.87,0.66 -0.42,-0.06 -0.71,-0.45 -0.66,-0.87 1.66,-11.95 -3.29,-26.05 -11.21,-39.53 -10.11,-17.19 -25.03,-33.34 -37.28,-42.78 -0.34,-0.26 -0.4,-0.75 -0.14,-1.08 0.26,-0.34 0.74,-0.4 1.08,-0.14 12.39,9.54 27.46,25.86 37.67,43.22 8.07,13.75 13.12,28.19 11.41,40.52z"/>
   <path class="fil2" d="M67.2 231.68c-0.43,0.04 -0.81,-0.27 -0.84,-0.7 -0.04,-0.42 0.28,-0.8 0.7,-0.84 0.03,0 8.06,-0.75 15.67,2.89 0.38,0.18 0.54,0.64 0.36,1.03 -0.18,0.38 -0.65,0.54 -1.03,0.36 -7.21,-3.45 -14.84,-2.74 -14.86,-2.74z"/>
   <path class="fil2" d="M73.04 240.64c0.16,-0.39 0.61,-0.58 1.01,-0.42 0.39,0.17 0.58,0.62 0.42,1.01 -0.01,0.02 -2.99,7.08 -1.86,15.01 0.05,0.42 -0.24,0.81 -0.66,0.86 -0.42,0.06 -0.81,-0.23 -0.87,-0.65 -1.18,-8.35 1.95,-15.78 1.96,-15.81z"/>
   <path class="fil2" d="M80.15 250.99c-0.42,0.04 -0.8,-0.28 -0.83,-0.71 -0.04,-0.42 0.27,-0.8 0.7,-0.83 0.02,0 5.51,-1.82 13.11,1.82 0.39,0.19 0.55,0.65 0.37,1.03 -0.19,0.38 -0.65,0.55 -1.03,0.36 -7.21,-3.45 -12.29,-1.67 -12.32,-1.67z"/>
   <path class="fil2" d="M82.47 257.69c0.25,-0.34 0.73,-0.42 1.08,-0.17 0.35,0.25 0.42,0.73 0.17,1.08 -0.01,0.01 -4.55,6.18 -5.3,14.15 -0.04,0.43 -0.42,0.74 -0.85,0.7 -0.42,-0.05 -0.73,-0.42 -0.69,-0.85 0.8,-8.38 5.58,-14.89 5.59,-14.91z"/>
   <g>
    <path class="fil9" d="M43.98 221.31c16.19,4.1 14.28,20.5 6.93,30.36 -5.32,7.14 -7.94,9.09 -15.7,13.27 -1.52,-2.36 -7.66,-19.27 -7.93,-24.79 -0.26,-5.16 1.07,-9.23 3.49,-12.9 3.51,-3.81 7.97,-6.61 13.21,-5.94z"/>
    <path class="fil2" d="M35.97 264.4c-0.24,0.26 -0.65,0.28 -0.91,0.04 -0.26,-0.24 -0.28,-0.64 -0.04,-0.91 5.19,-5.69 7.68,-14.92 8.38,-24.9 0.9,-12.75 -1.71,-26.68 -4.76,-36.12 -0.11,-0.34 0.08,-0.7 0.42,-0.81 0.33,-0.11 0.7,0.08 0.8,0.42 3.1,9.57 5.74,23.68 4.83,36.6 -0.73,10.24 -3.31,19.74 -8.72,25.68z"/>
   </g>
  </g>
  <polygon class="fil10" points="512,443.15 512,445.23 0,445.23 0,443.15 "/>
 </g>
</svg>
