<svg width="1572" height="1500" viewBox="0 0 1572 1500" fill="none" xmlns="http://www.w3.org/2000/svg">
<g clip-path="url(#clip0_7_151)">
<path d="M260.224 1128.33C265.959 1136.06 273.068 1142.67 281.197 1147.83C282.925 1148.92 284.7 1149.96 286.505 1150.91H328.99C328.481 1149.89 327.987 1148.86 327.508 1147.83C314.336 1120.02 310.205 1088.79 315.697 1058.51C321.189 1028.24 336.027 1000.45 358.127 979.046C332.447 986.98 308.712 1002.45 293.187 1024.38C285.644 1035.06 280.279 1047.13 277.4 1059.89C274.835 1034.37 278.912 1008.63 289.237 985.158C268.388 1002.12 252.152 1025.35 245.964 1051.5C239.776 1077.67 244.267 1106.7 260.224 1128.33Z" fill="#F0F0F0" id="id_101"></path>
<path d="M1427.28 779.741H1138.44C1136.66 779.739 1134.95 779.03 1133.69 777.771C1132.43 776.511 1131.72 774.803 1131.72 773.022V594.296C1131.72 592.515 1132.43 590.807 1133.69 589.547C1134.95 588.288 1136.66 587.579 1138.44 587.577H1427.28C1429.06 587.579 1430.77 588.288 1432.03 589.547C1433.29 590.807 1434 592.515 1434 594.296V773.022C1434 774.803 1433.29 776.511 1432.03 777.771C1430.77 779.03 1429.06 779.739 1427.28 779.741Z" fill="white" id="id_102"></path>
<path d="M1427.28 779.741H1138.44C1136.66 779.739 1134.95 779.03 1133.69 777.771C1132.43 776.511 1131.72 774.803 1131.72 773.022V594.296C1131.72 592.515 1132.43 590.807 1133.69 589.547C1134.95 588.288 1136.66 587.579 1138.44 587.577H1427.28C1429.06 587.579 1430.77 588.288 1432.03 589.547C1433.29 590.807 1434 592.515 1434 594.296V773.022C1434 774.803 1433.29 776.511 1432.03 777.771C1430.77 779.03 1429.06 779.739 1427.28 779.741ZM1138.44 590.265C1137.37 590.266 1136.35 590.691 1135.59 591.447C1134.83 592.202 1134.41 593.227 1134.41 594.296V773.022C1134.41 774.091 1134.83 775.115 1135.59 775.871C1136.35 776.627 1137.37 777.052 1138.44 777.053H1427.28C1428.35 777.052 1429.38 776.627 1430.13 775.871C1430.89 775.115 1431.31 774.091 1431.31 773.022V594.296C1431.31 593.227 1430.89 592.202 1430.13 591.447C1429.38 590.691 1428.35 590.266 1427.28 590.265H1138.44Z" fill="#3F3D56" id="id_103"></path>
<path d="M1370.19 647.266H1195.54C1193.93 647.266 1192.39 646.629 1191.26 645.495C1190.13 644.361 1189.49 642.823 1189.49 641.219C1189.49 639.615 1190.13 638.077 1191.26 636.943C1192.39 635.809 1193.93 635.172 1195.54 635.172H1370.19C1371.79 635.172 1373.33 635.809 1374.46 636.943C1375.59 638.077 1376.23 639.615 1376.23 641.219C1376.23 642.823 1375.59 644.361 1374.46 645.495C1373.33 646.629 1371.79 647.266 1370.19 647.266Z" fill="#CCCCCC" id="id_104"></path>
<path d="M1370.19 688.924H1195.54C1193.93 688.924 1192.39 688.287 1191.26 687.153C1190.13 686.019 1189.49 684.481 1189.49 682.877C1189.49 681.273 1190.13 679.735 1191.26 678.601C1192.39 677.467 1193.93 676.83 1195.54 676.83H1370.19C1371.79 676.83 1373.33 677.467 1374.46 678.601C1375.59 679.735 1376.23 681.273 1376.23 682.877C1376.23 684.481 1375.59 686.019 1374.46 687.153C1373.33 688.287 1371.79 688.924 1370.19 688.924Z" fill="#CCCCCC" id="id_105"></path>
<path d="M1354.63 754.974C1366.56 754.974 1376.23 745.298 1376.23 733.363C1376.23 721.428 1366.56 711.752 1354.63 711.752C1342.69 711.752 1333.02 721.428 1333.02 733.363C1333.02 745.298 1342.69 754.974 1354.63 754.974Z" fill="#e02151" id="id_106"></path>
<path d="M1355.22 723.182V721.123H1355.83V723.182C1356.69 723.22 1357.54 723.427 1358.32 723.792C1358.89 724.059 1359.38 724.467 1359.74 724.977C1360.08 725.45 1360.26 726.016 1360.26 726.596C1360.27 727.02 1360.13 727.434 1359.86 727.761C1359.74 727.91 1359.59 728.03 1359.42 728.112C1359.25 728.194 1359.06 728.236 1358.88 728.235C1358.73 728.238 1358.59 728.211 1358.46 728.158C1358.33 728.104 1358.22 728.024 1358.12 727.923C1358.02 727.823 1357.94 727.702 1357.88 727.57C1357.83 727.437 1357.8 727.294 1357.81 727.151C1357.81 726.951 1357.85 726.753 1357.93 726.569L1358.17 726.054C1358.26 725.839 1358.3 725.609 1358.29 725.377C1358.3 725.018 1358.19 724.667 1357.97 724.381C1357.73 724.082 1357.41 723.858 1357.05 723.738C1356.65 723.608 1356.24 723.526 1355.83 723.494V730.903L1355.96 730.985C1357.24 731.658 1358.39 732.532 1359.39 733.572C1359.83 734.094 1360.18 734.687 1360.43 735.326C1360.67 735.945 1360.8 736.604 1360.8 737.27C1360.81 738.131 1360.59 738.979 1360.15 739.721C1359.72 740.446 1359.1 741.034 1358.35 741.415C1357.56 741.802 1356.7 742.05 1355.83 742.146V744.354H1355.22V742.187C1354.34 742.18 1353.46 742 1352.65 741.658C1351.83 741.356 1351.12 740.842 1350.57 740.168C1350.09 739.565 1349.83 738.814 1349.83 738.042C1349.81 737.499 1349.98 736.967 1350.3 736.531C1350.43 736.343 1350.6 736.189 1350.8 736.082C1351 735.975 1351.23 735.918 1351.45 735.915C1351.59 735.91 1351.73 735.934 1351.85 735.984C1351.98 736.033 1352.1 736.109 1352.19 736.205C1352.29 736.302 1352.36 736.417 1352.41 736.544C1352.46 736.67 1352.49 736.806 1352.48 736.942C1352.44 737.359 1352.26 737.752 1351.98 738.064C1351.84 738.258 1351.71 738.466 1351.61 738.686C1351.54 738.857 1351.51 739.041 1351.51 739.226C1351.51 739.72 1351.68 740.199 1351.99 740.584C1352.33 741.016 1352.77 741.35 1353.28 741.551C1353.87 741.778 1354.49 741.888 1355.11 741.875H1355.22V733.03L1354.45 732.583C1353.72 732.159 1353.16 731.806 1352.78 731.526C1352.4 731.254 1352.05 730.946 1351.74 730.605C1350.96 729.776 1350.53 728.681 1350.53 727.544C1350.53 726.836 1350.71 726.139 1351.05 725.519C1351.38 724.9 1351.87 724.38 1352.47 724.009C1353.3 723.507 1354.25 723.222 1355.22 723.182ZM1355.22 723.48C1354.69 723.497 1354.18 723.611 1353.7 723.819C1353.21 724.057 1352.82 724.44 1352.56 724.914C1352.27 725.429 1352.12 726.012 1352.13 726.603C1352.13 727.325 1352.35 728.029 1352.77 728.618C1352.99 728.938 1353.25 729.225 1353.55 729.47C1354.04 729.835 1354.55 730.169 1355.08 730.47L1355.22 730.551V723.48ZM1355.83 741.848C1356.18 741.819 1356.52 741.746 1356.85 741.631C1357.12 741.527 1357.37 741.381 1357.6 741.198C1358.01 740.842 1358.34 740.388 1358.54 739.877C1358.77 739.313 1358.89 738.707 1358.89 738.096C1358.84 737.115 1358.52 736.165 1357.99 735.342C1357.45 734.52 1356.71 733.853 1355.83 733.409V741.848Z" fill="white" id="id_107"></path>
<path d="M1230.52 660.11H941.677C939.896 660.108 938.188 659.399 936.929 658.14C935.67 656.88 934.961 655.172 934.959 653.391V474.665C934.961 472.884 935.67 471.176 936.929 469.916C938.188 468.657 939.896 467.948 941.677 467.946H1230.52C1232.3 467.948 1234.01 468.657 1235.27 469.916C1236.53 471.176 1237.24 472.884 1237.24 474.665V653.391C1237.24 655.172 1236.53 656.88 1235.27 658.14C1234.01 659.399 1232.3 660.108 1230.52 660.11Z" fill="white" id="id_108"></path>
<path d="M1230.52 660.11H941.677C939.896 660.108 938.188 659.399 936.929 658.14C935.67 656.88 934.961 655.172 934.959 653.391V474.665C934.961 472.884 935.67 471.176 936.929 469.916C938.188 468.657 939.896 467.948 941.677 467.946H1230.52C1232.3 467.948 1234.01 468.657 1235.27 469.916C1236.53 471.176 1237.24 472.884 1237.24 474.665V653.391C1237.24 655.172 1236.53 656.88 1235.27 658.14C1234.01 659.399 1232.3 660.108 1230.52 660.11ZM941.677 470.634C940.608 470.635 939.584 471.06 938.828 471.816C938.072 472.572 937.647 473.596 937.646 474.665V653.391C937.647 654.46 938.072 655.485 938.828 656.24C939.584 656.996 940.608 657.421 941.677 657.422H1230.52C1231.59 657.421 1232.61 656.996 1233.37 656.24C1234.13 655.485 1234.55 654.46 1234.55 653.391V474.665C1234.55 473.596 1234.13 472.572 1233.37 471.816C1232.61 471.06 1231.59 470.635 1230.52 470.634H941.677Z" fill="#3F3D56" id="id_109"></path>
<path d="M1173.42 527.635H998.774C997.17 527.635 995.633 526.998 994.499 525.864C993.365 524.73 992.728 523.192 992.728 521.588C992.728 519.985 993.365 518.446 994.499 517.312C995.633 516.178 997.17 515.541 998.774 515.541H1173.42C1175.03 515.541 1176.56 516.178 1177.7 517.312C1178.83 518.446 1179.47 519.985 1179.47 521.588C1179.47 523.192 1178.83 524.73 1177.7 525.864C1176.56 526.998 1175.03 527.635 1173.42 527.635Z" fill="#CCCCCC" id="id_110"></path>
<path d="M1173.42 569.293H998.774C997.17 569.293 995.633 568.656 994.499 567.522C993.365 566.388 992.728 564.85 992.728 563.246C992.728 561.642 993.365 560.104 994.499 558.97C995.633 557.836 997.17 557.199 998.774 557.199H1173.42C1175.03 557.199 1176.56 557.836 1177.7 558.97C1178.83 560.104 1179.47 561.642 1179.47 563.246C1179.47 564.85 1178.83 566.388 1177.7 567.522C1176.56 568.656 1175.03 569.293 1173.42 569.293Z" fill="#CCCCCC" id="id_111"></path>
<path d="M1157.86 635.343C1169.8 635.343 1179.47 625.667 1179.47 613.732C1179.47 601.797 1169.8 592.121 1157.86 592.121C1145.93 592.121 1136.26 601.797 1136.26 613.732C1136.26 625.667 1145.93 635.343 1157.86 635.343Z" fill="#ed0942" id="id_112"></path>
<path d="M1158.46 603.552V601.493H1159.07V603.552C1159.93 603.589 1160.78 603.796 1161.56 604.161C1162.13 604.428 1162.62 604.836 1162.98 605.347C1163.32 605.819 1163.5 606.385 1163.5 606.965C1163.51 607.389 1163.37 607.803 1163.1 608.13C1162.98 608.279 1162.83 608.399 1162.66 608.481C1162.49 608.563 1162.3 608.605 1162.11 608.604C1161.97 608.607 1161.83 608.581 1161.7 608.527C1161.57 608.473 1161.45 608.394 1161.36 608.293C1161.25 608.192 1161.17 608.072 1161.12 607.939C1161.07 607.806 1161.04 607.664 1161.04 607.521C1161.04 607.32 1161.09 607.122 1161.17 606.938L1161.41 606.423C1161.5 606.208 1161.54 605.978 1161.53 605.746C1161.54 605.387 1161.42 605.036 1161.21 604.751C1160.97 604.451 1160.65 604.227 1160.29 604.107C1159.89 603.977 1159.48 603.896 1159.07 603.863V611.272L1159.2 611.354C1160.48 612.028 1161.63 612.901 1162.63 613.941C1163.07 614.463 1163.42 615.056 1163.66 615.695C1163.91 616.315 1164.03 616.974 1164.04 617.639C1164.05 618.5 1163.82 619.348 1163.39 620.091C1162.96 620.816 1162.34 621.403 1161.59 621.784C1160.8 622.172 1159.94 622.419 1159.07 622.515V624.723H1158.46V622.556C1157.57 622.549 1156.7 622.369 1155.88 622.028C1155.07 621.725 1154.35 621.211 1153.81 620.538C1153.32 619.934 1153.06 619.184 1153.07 618.411C1153.05 617.868 1153.22 617.336 1153.54 616.901C1153.67 616.713 1153.84 616.559 1154.04 616.451C1154.24 616.344 1154.47 616.287 1154.69 616.284C1154.83 616.28 1154.97 616.303 1155.09 616.353C1155.22 616.403 1155.33 616.478 1155.43 616.575C1155.53 616.671 1155.6 616.786 1155.65 616.913C1155.7 617.04 1155.73 617.175 1155.72 617.312C1155.68 617.729 1155.5 618.121 1155.22 618.433C1155.08 618.627 1154.95 618.835 1154.85 619.055C1154.78 619.227 1154.74 619.411 1154.75 619.596C1154.75 620.09 1154.92 620.568 1155.23 620.954C1155.57 621.385 1156.01 621.719 1156.52 621.92C1157.1 622.147 1157.72 622.257 1158.35 622.244H1158.46V613.399L1157.69 612.952C1156.95 612.528 1156.4 612.176 1156.01 611.896C1155.64 611.624 1155.29 611.315 1154.98 610.975C1154.2 610.146 1153.77 609.05 1153.77 607.913C1153.77 607.205 1153.95 606.508 1154.29 605.888C1154.62 605.27 1155.11 604.749 1155.71 604.378C1156.54 603.876 1157.49 603.592 1158.46 603.552ZM1158.46 603.85C1157.93 603.866 1157.42 603.981 1156.93 604.188C1156.45 604.427 1156.06 604.809 1155.8 605.283C1155.51 605.798 1155.36 606.381 1155.37 606.973C1155.36 607.694 1155.59 608.399 1156 608.987C1156.22 609.307 1156.49 609.594 1156.79 609.839C1157.28 610.204 1157.79 610.538 1158.32 610.839L1158.46 610.921V603.85ZM1159.07 622.217C1159.42 622.188 1159.76 622.115 1160.09 622.001C1160.36 621.897 1160.61 621.75 1160.83 621.567C1161.25 621.211 1161.58 620.758 1161.78 620.247C1162.01 619.683 1162.13 619.077 1162.13 618.465C1162.07 617.484 1161.76 616.534 1161.23 615.711C1160.69 614.889 1159.94 614.222 1159.07 613.779V622.217Z" fill="white" id="id_113"></path>
<path d="M631.75 633.442C629.233 633.26 626.707 633.632 624.35 634.532C621.993 635.432 619.862 636.838 618.107 638.651C616.352 640.464 615.016 642.64 614.192 645.025C613.369 647.411 613.079 649.948 613.341 652.458L557.812 678.497L584.991 695.143L633.556 667.864C637.742 667.143 641.518 664.91 644.169 661.59C646.82 658.27 648.161 654.093 647.938 649.85C647.716 645.607 645.945 641.593 642.961 638.569C639.977 635.545 635.988 633.72 631.75 633.442Z" fill="#FFB6B6" id="id_114"></path>
<path d="M401.968 1134.44L421.146 1134.43L430.269 1060.45L401.965 1060.45L401.968 1134.44Z" fill="#FFB6B6" id="id_115"></path>
<path d="M397.077 1128.17L434.844 1128.17H434.845C441.229 1128.17 447.35 1130.71 451.864 1135.22C456.377 1139.74 458.913 1145.86 458.914 1152.25V1153.03L397.078 1153.03L397.077 1128.17Z" fill="#2F2E41" id="id_116"></path>
<path d="M499.824 1134.44L519.002 1134.43L528.125 1060.45L499.821 1060.45L499.824 1134.44Z" fill="#FFB6B6" id="id_117"></path>
<path d="M494.933 1128.17L532.7 1128.17H532.702C539.085 1128.17 545.206 1130.71 549.72 1135.22C554.234 1139.74 556.769 1145.86 556.77 1152.25V1153.03L494.934 1153.03L494.933 1128.17Z" fill="#2F2E41" id="id_118"></path>
<path d="M512.634 750.674L522.368 771.635L539.916 959.09L526.275 1120.21H494.372L456.726 866.247L439.044 1114.36L395.997 1112.62L387.733 776.235L512.634 750.674Z" fill="#2F2E41" id="id_119"></path>
<path d="M357.522 577.689L397.877 561.267L454.836 564.462L505.474 582.92L522.368 771.635C478.315 795.698 433.69 802.265 388.289 785.06L346.153 662.145L357.522 577.689Z" fill="#E4E4E4" id="id_120"></path>
<path d="M489.719 587.909L507.627 582.92C507.627 582.92 521.172 574.111 525.628 600.298C530.085 626.484 553.016 667.216 553.016 667.216L592.271 646.291L610.445 685.991L548.452 723.553L483.169 657.757L489.719 587.909Z" fill="#E4E4E4" id="id_121"></path>
<path d="M391.491 526.303C389.316 521.367 388.134 516.051 388.014 510.658C387.893 505.266 388.835 499.902 390.787 494.874C392.738 489.846 395.661 485.251 399.388 481.352C403.115 477.454 407.573 474.328 412.507 472.152C417.442 469.977 422.757 468.795 428.148 468.675C433.539 468.554 438.901 469.496 443.928 471.448C448.956 473.4 453.549 476.324 457.447 480.052C461.344 483.779 464.469 488.238 466.644 493.174L466.879 493.718C471.2 503.719 471.372 515.028 467.356 525.157C465.368 530.172 462.412 534.746 458.657 538.618C454.901 542.491 450.42 545.585 445.469 547.725C435.47 552.047 424.164 552.219 414.038 548.203C403.912 544.187 395.796 536.311 391.475 526.31L391.491 526.303Z" fill="#FFB6B6" id="id_122"></path>
<path d="M447.24 488.711C455.779 490.26 468.993 495.637 476.326 489.329C472.704 485.096 468.149 481.763 463.019 479.593C462.008 479.258 461.073 478.729 460.264 478.036C457.764 475.509 459.696 471.154 458.552 467.737C457.996 466.488 457.158 465.386 456.104 464.516C455.05 463.647 453.808 463.034 452.477 462.726C449.931 461.965 447.264 461.841 444.764 460.917C438.847 458.693 434.64 452.327 428.575 450.597C423.291 449.069 417.974 451.445 413.413 454.218C408.853 456.991 404.341 460.281 399.006 460.807C395.019 461.171 392.495 467.731 388.492 467.923C380.104 468.331 380.57 462.801 379.95 471.615C379.592 476.875 372.078 487.338 372.2 492.643C372.325 496.12 371.71 499.563 371.809 503.05C372.035 509.691 374.698 516.017 379.29 520.819C383.108 524.747 388.075 527.397 391.29 531.874C392.961 534.251 394.121 537.025 396.067 539.176C398.013 541.327 401.309 542.621 403.481 541.086C405.653 539.55 405.693 536.227 406.771 533.699C407.432 532.148 408.561 530.844 410 529.967C411.439 529.091 413.116 528.687 414.797 528.812C416.542 529.04 418.189 529.75 419.552 530.864C420.916 531.977 421.941 533.449 422.514 535.113C421.497 529.525 418.816 524.29 417.797 518.697C416.778 513.105 418.106 506.425 422.92 504.241C424.987 503.279 427.78 503.021 428.61 500.804C429.119 499.468 428.654 497.89 428.85 496.446C429.908 489.369 441.673 487.618 447.24 488.711Z" fill="#2F2E41" id="id_123"></path>
<path d="M393.127 782.878C392.759 780.381 391.849 777.996 390.459 775.889C389.07 773.783 387.235 772.007 385.085 770.686C382.936 769.365 380.522 768.532 378.016 768.245C375.509 767.958 372.97 768.225 370.577 769.026L333.125 720.448L322.771 750.597L359.924 792.105C361.535 796.036 364.533 799.239 368.347 801.108C372.162 802.976 376.53 803.38 380.623 802.243C384.716 801.106 388.249 798.506 390.554 794.937C392.858 791.368 393.774 787.077 393.127 782.878V782.878Z" fill="#FFB6B6" id="id_124"></path>
<path d="M370.458 586.851L357.522 577.689C357.522 577.689 327.928 575.993 323.623 600.298L269.358 689.589L336.64 782.434L369.26 748.087L328.1 699.976L362.658 636.509L370.458 586.851Z" fill="#E4E4E4" id="id_125"></path>
<path d="M685.622 601H684.943V582.404C684.943 580.99 684.665 579.591 684.124 578.285C683.583 576.979 682.791 575.793 681.792 574.793C680.792 573.794 679.606 573.001 678.301 572.46C676.995 571.919 675.596 571.641 674.183 571.641H634.795C633.382 571.641 631.982 571.919 630.677 572.46C629.371 573.001 628.185 573.794 627.186 574.793C626.187 575.793 625.394 576.979 624.854 578.285C624.313 579.591 624.034 580.99 624.034 582.404V684.423C624.034 685.837 624.313 687.236 624.854 688.542C625.394 689.848 626.187 691.035 627.186 692.034C628.185 693.033 629.371 693.826 630.677 694.367C631.982 694.908 633.382 695.186 634.795 695.186H674.183C675.596 695.186 676.995 694.908 678.301 694.367C679.606 693.826 680.792 693.033 681.792 692.034C682.791 691.035 683.583 689.848 684.124 688.542C684.665 687.236 684.943 685.837 684.943 684.423V614.237H685.622V601Z" fill="#3F3D56" id="id_126"></path>
<path d="M674.617 574.441H669.476C669.712 575.021 669.802 575.65 669.738 576.273C669.675 576.896 669.459 577.493 669.109 578.013C668.76 578.533 668.288 578.959 667.736 579.253C667.183 579.548 666.567 579.702 665.941 579.702H643.376C642.75 579.702 642.133 579.548 641.581 579.253C641.028 578.959 640.557 578.533 640.208 578.013C639.858 577.493 639.642 576.896 639.578 576.273C639.514 575.65 639.605 575.021 639.841 574.441H635.039C632.908 574.441 630.864 575.288 629.357 576.795C627.85 578.303 627.003 580.347 627.003 582.479V684.349C627.003 686.48 627.85 688.525 629.357 690.032C630.864 691.539 632.908 692.386 635.039 692.386H674.617C676.748 692.386 678.792 691.539 680.299 690.032C681.806 688.525 682.653 686.48 682.653 684.349V582.479C682.653 580.347 681.806 578.302 680.299 576.795C678.792 575.288 676.748 574.441 674.617 574.441Z" fill="#ed0e46" id="id_127"></path>
<path d="M1029.9 538.164H741.057C739.276 538.162 737.568 537.453 736.309 536.194C735.05 534.934 734.341 533.226 734.339 531.445V352.719C734.341 350.938 735.05 349.23 736.309 347.97C737.568 346.711 739.276 346.002 741.057 346H1029.9C1031.68 346.002 1033.39 346.711 1034.65 347.97C1035.91 349.23 1036.62 350.938 1036.62 352.719V531.445C1036.62 533.226 1035.91 534.934 1034.65 536.194C1033.39 537.453 1031.68 538.162 1029.9 538.164Z" fill="white" id="id_128"></path>
<path d="M1029.9 538.164H741.057C739.276 538.162 737.568 537.453 736.309 536.194C735.05 534.934 734.341 533.226 734.339 531.445V352.719C734.341 350.938 735.05 349.23 736.309 347.97C737.568 346.711 739.276 346.002 741.057 346H1029.9C1031.68 346.002 1033.39 346.711 1034.65 347.97C1035.91 349.23 1036.62 350.938 1036.62 352.719V531.445C1036.62 533.226 1035.91 534.934 1034.65 536.194C1033.39 537.453 1031.68 538.162 1029.9 538.164ZM741.057 348.688C739.988 348.689 738.964 349.114 738.208 349.87C737.452 350.625 737.027 351.65 737.026 352.719V531.445C737.027 532.514 737.452 533.538 738.208 534.294C738.964 535.05 739.988 535.475 741.057 535.476H1029.9C1030.97 535.475 1031.99 535.05 1032.75 534.294C1033.51 533.538 1033.93 532.514 1033.93 531.445V352.719C1033.93 351.65 1033.51 350.625 1032.75 349.87C1031.99 349.114 1030.97 348.689 1029.9 348.688H741.057Z" fill="#3F3D56" id="id_129"></path>
<path d="M972.804 405.689H798.154C796.55 405.689 795.013 405.052 793.879 403.918C792.745 402.784 792.108 401.246 792.108 399.642C792.108 398.038 792.745 396.5 793.879 395.366C795.013 394.232 796.55 393.595 798.154 393.595H972.804C974.407 393.595 975.945 394.232 977.079 395.366C978.212 396.5 978.849 398.038 978.849 399.642C978.849 401.246 978.212 402.784 977.079 403.918C975.945 405.052 974.407 405.689 972.804 405.689Z" fill="#CCCCCC" id="id_130"></path>
<path d="M972.804 447.347H798.154C796.55 447.347 795.013 446.71 793.879 445.576C792.745 444.442 792.108 442.904 792.108 441.3C792.108 439.696 792.745 438.158 793.879 437.024C795.013 435.89 796.55 435.253 798.154 435.253H972.804C974.407 435.253 975.945 435.89 977.079 437.024C978.212 438.158 978.849 439.696 978.849 441.3C978.849 442.904 978.212 444.442 977.079 445.576C975.945 446.71 974.407 447.347 972.804 447.347Z" fill="#CCCCCC" id="id_131"></path>
<path d="M957.244 513.397C969.176 513.397 978.849 503.721 978.849 491.786C978.849 479.851 969.176 470.175 957.244 470.175C945.312 470.175 935.639 479.851 935.639 491.786C935.639 503.721 945.312 513.397 957.244 513.397Z" fill="#de2856" id="id_132"></path>
<path d="M957.838 481.605V479.547H958.447V481.605C959.31 481.643 960.156 481.85 960.939 482.215C961.506 482.482 961.996 482.89 962.361 483.401C962.697 483.873 962.877 484.439 962.875 485.019C962.888 485.443 962.746 485.857 962.476 486.184C962.359 486.333 962.21 486.453 962.04 486.535C961.87 486.617 961.683 486.659 961.494 486.658C961.353 486.661 961.213 486.634 961.082 486.581C960.952 486.527 960.834 486.448 960.736 486.346C960.634 486.246 960.553 486.125 960.5 485.993C960.446 485.86 960.421 485.718 960.424 485.574C960.425 485.374 960.466 485.176 960.546 484.992L960.79 484.477C960.876 484.262 960.917 484.032 960.912 483.8C960.919 483.441 960.804 483.09 960.587 482.805C960.349 482.505 960.029 482.281 959.666 482.161C959.271 482.031 958.862 481.949 958.447 481.917V489.326L958.583 489.408C959.855 490.082 961.012 490.955 962.009 491.995C962.45 492.517 962.8 493.11 963.045 493.749C963.288 494.368 963.414 495.027 963.417 495.693C963.428 496.554 963.203 497.402 962.767 498.144C962.341 498.869 961.716 499.457 960.966 499.838C960.175 500.226 959.323 500.473 958.447 500.569V502.777H957.838V500.61C956.954 500.603 956.08 500.423 955.265 500.082C954.451 499.779 953.734 499.265 953.186 498.592C952.704 497.988 952.443 497.237 952.448 496.465C952.431 495.922 952.598 495.39 952.922 494.954C953.05 494.767 953.222 494.612 953.422 494.505C953.622 494.398 953.846 494.341 954.073 494.338C954.209 494.333 954.345 494.357 954.472 494.407C954.599 494.457 954.714 494.532 954.811 494.628C954.907 494.725 954.983 494.84 955.033 494.967C955.083 495.093 955.107 495.229 955.102 495.366C955.056 495.782 954.881 496.175 954.601 496.487C954.455 496.681 954.33 496.889 954.229 497.109C954.159 497.281 954.125 497.464 954.127 497.649C954.13 498.143 954.299 498.622 954.608 499.007C954.945 499.439 955.392 499.773 955.901 499.974C956.483 500.201 957.105 500.311 957.729 500.298H957.838V491.453L957.066 491.006C956.335 490.582 955.777 490.23 955.393 489.949C955.018 489.678 954.671 489.369 954.357 489.028C953.579 488.199 953.148 487.104 953.152 485.967C953.148 485.259 953.325 484.562 953.667 483.942C954.001 483.323 954.491 482.803 955.089 482.432C955.921 481.93 956.866 481.646 957.838 481.605ZM957.838 481.903C957.313 481.92 956.796 482.034 956.314 482.242C955.832 482.48 955.436 482.863 955.181 483.337C954.891 483.852 954.742 484.435 954.75 485.026C954.744 485.748 954.966 486.453 955.384 487.041C955.605 487.361 955.87 487.648 956.172 487.893C956.661 488.258 957.172 488.592 957.703 488.893L957.838 488.974V481.903ZM958.447 500.271C958.796 500.242 959.14 500.169 959.472 500.054C959.74 499.95 959.991 499.804 960.213 499.621C960.631 499.265 960.955 498.811 961.157 498.301C961.392 497.736 961.512 497.13 961.508 496.519C961.454 495.538 961.143 494.588 960.605 493.765C960.068 492.943 959.324 492.276 958.447 491.832V500.271Z" fill="white" id="id_133"></path>
<path d="M727.514 1154H139.543C139.134 1154 138.741 1153.84 138.452 1153.55C138.163 1153.26 138 1152.87 138 1152.46C138 1152.05 138.163 1151.65 138.452 1151.36C138.741 1151.08 139.134 1150.91 139.543 1150.91H727.514C727.923 1150.91 728.316 1151.08 728.605 1151.36C728.895 1151.65 729.057 1152.05 729.057 1152.46C729.057 1152.87 728.895 1153.26 728.605 1153.55C728.316 1153.84 727.923 1154 727.514 1154Z" fill="#CACACA" id="id_134"></path>
<path d="M802.485 346H745.158C742.285 346.004 739.53 347.146 737.498 349.177C735.466 351.209 734.323 353.963 734.319 356.835V406.468C734.323 409.34 735.466 412.094 737.498 414.125C739.53 416.156 742.285 417.299 745.158 417.303H802.485C805.359 417.299 808.114 416.156 810.146 414.125C812.178 412.094 813.321 409.34 813.324 406.468V356.835C813.321 353.963 812.178 351.209 810.146 349.177C808.114 347.146 805.359 346.004 802.485 346Z" fill="#f0134a" id="id_135"></path>
<path d="M1207.98 430.774H1150.66C1147.78 430.777 1145.03 431.92 1142.99 433.951C1140.96 435.982 1139.82 438.736 1139.82 441.609V491.241C1139.82 494.114 1140.96 496.868 1142.99 498.899C1145.03 500.93 1147.78 502.073 1150.66 502.076H1207.98C1210.86 502.073 1213.61 500.93 1215.64 498.899C1217.67 496.868 1218.82 494.114 1218.82 491.241V441.609C1218.82 438.736 1217.67 435.982 1215.64 433.951C1213.61 431.92 1210.86 430.777 1207.98 430.774Z" fill="#d11f4c" id="id_136"></path>
<path d="M1440.05 635.174H1398.19C1396.09 635.172 1394.08 634.337 1392.59 632.854C1391.11 631.37 1390.27 629.359 1390.27 627.261V591.015C1390.27 588.917 1391.11 586.906 1392.59 585.422C1394.08 583.939 1396.09 583.104 1398.19 583.102H1440.05C1442.15 583.104 1444.16 583.939 1445.65 585.422C1447.13 586.906 1447.97 588.917 1447.97 591.015V627.26C1447.97 629.359 1447.13 631.37 1445.65 632.854C1444.16 634.337 1442.15 635.172 1440.05 635.174Z" fill="#d1224d" id="id_137"></path>
<ellipse cx="448" cy="512" rx="2" ry="3" fill="#2F2E41" id="id_138"></ellipse>
<ellipse cx="464" cy="512" rx="2" ry="3" fill="#2F2E41" id="id_139"></ellipse>
</g>
<defs>
<clipPath id="clip0_7_151">
<rect width="1296" height="808" fill="white" transform="translate(138 346)" id="id_140"></rect>
</clipPath>
</defs>
</svg>