<svg width="1500" height="1500" viewBox="0 0 1500 1500" fill="none" xmlns="http://www.w3.org/2000/svg">
<g clip-path="url(#clip0_21_1048)">
<path d="M648.834 835.321C659.306 851.968 674.163 864.471 691.295 871.054C694.96 872.545 698.812 873.376 702.707 873.514C706.505 873.511 710.233 872.361 713.504 870.183C716.589 868.222 719.544 865.813 722.999 864.732C724.775 864.208 726.629 864.113 728.439 864.454C730.249 864.795 731.976 865.563 733.504 866.709C737.379 869.452 740.148 873.602 742.731 877.766C745.599 882.39 748.514 887.243 752.991 890.05C753.533 890.39 753.034 891.32 752.492 890.98C744.702 886.096 741.818 875.738 735.188 869.441C732.094 866.503 728.196 864.598 724.107 865.547C720.532 866.378 717.483 868.859 714.373 870.875C711.21 873.052 707.623 874.323 703.924 874.576C700.035 874.661 696.162 874 692.47 872.62C684.114 869.663 676.223 865.242 669.085 859.521C660.906 853.042 653.771 845.033 647.987 835.84C647.629 835.271 648.479 834.756 648.834 835.321V835.321Z" fill="white" id="id_101"></path>
<path d="M685.668 869.3C684.298 872.392 681.998 874.834 679.18 876.19C676.361 877.546 673.207 877.728 670.28 876.703C669.688 876.493 669.949 875.447 670.542 875.657C673.265 876.617 676.204 876.447 678.826 875.178C681.449 873.909 683.583 871.625 684.843 868.738C685.118 868.111 685.941 868.677 685.668 869.3V869.3Z" fill="white" id="id_102"></path>
<path d="M712.055 871.41C710.125 864.689 706.02 859.035 700.558 855.575C700.017 855.233 700.517 854.304 701.057 854.646C706.735 858.257 710.996 864.151 712.991 871.15C713.18 871.817 712.244 872.073 712.055 871.41Z" fill="white" id="id_103"></path>
<path d="M661.996 852.289C662.747 851.217 663.25 849.952 663.46 848.607C663.671 847.262 663.581 845.879 663.2 844.582C663.003 843.918 663.94 843.663 664.136 844.323C664.551 845.757 664.648 847.285 664.419 848.771C664.189 850.258 663.641 851.659 662.82 852.851C662.752 852.971 662.645 853.057 662.522 853.091C662.399 853.125 662.269 853.105 662.159 853.035C662.05 852.96 661.972 852.839 661.941 852.7C661.911 852.56 661.93 852.412 661.996 852.289V852.289Z" fill="white" id="id_104"></path>
<path d="M711.942 828.203C709.198 829.742 706.059 830.13 703.084 829.299C700.109 828.468 697.494 826.472 695.704 823.666C695.343 823.097 696.111 822.439 696.471 823.009C698.134 825.625 700.571 827.484 703.342 828.251C706.113 829.019 709.037 828.644 711.584 827.194C712.138 826.88 712.493 827.891 711.942 828.203Z" fill="white" id="id_105"></path>
<path d="M731.885 847.803C733.933 841.127 733.674 833.826 731.16 827.355C730.91 826.714 731.805 826.311 732.054 826.951C734.66 833.69 734.915 841.289 732.771 848.231C732.566 848.893 731.682 848.461 731.885 847.803Z" fill="white" id="id_106"></path>
<path d="M702.124 798.548C703.296 798.202 704.373 797.534 705.259 796.602C706.145 795.671 706.812 794.506 707.201 793.213C707.398 792.548 708.282 792.981 708.086 793.641C707.652 795.068 706.914 796.353 705.937 797.385C704.96 798.416 703.774 799.162 702.482 799.557C702.363 799.606 702.232 799.602 702.116 799.545C702 799.489 701.907 799.385 701.856 799.254C701.809 799.121 701.811 798.971 701.861 798.839C701.912 798.707 702.006 798.602 702.124 798.548H702.124Z" fill="white" id="id_107"></path>
<path d="M1345.1 829.343C1336.52 847.315 1323.14 861.783 1306.85 870.691C1303.38 872.679 1299.65 874.036 1295.79 874.714C1292.03 875.237 1288.2 874.612 1284.72 872.905C1281.44 871.386 1278.25 869.405 1274.7 868.811C1272.88 868.537 1271.03 868.7 1269.27 869.289C1267.51 869.878 1265.88 870.88 1264.49 872.229C1260.94 875.489 1258.65 879.991 1256.54 884.481C1254.19 889.467 1251.83 894.688 1247.69 898.094C1247.19 898.507 1247.79 899.36 1248.29 898.948C1255.49 893.022 1257.22 882.342 1263.12 875.174C1265.87 871.829 1269.53 869.398 1273.69 869.774C1277.33 870.102 1280.62 872.142 1283.93 873.712C1287.31 875.434 1291 876.197 1294.7 875.936C1298.57 875.482 1302.34 874.288 1305.86 872.407C1313.83 868.314 1321.18 862.833 1327.64 856.166C1335.05 848.602 1341.26 839.665 1345.99 829.74C1346.29 829.126 1345.39 828.732 1345.1 829.343Z" fill="white" id="id_108"></path>
<path d="M1312.25 868.17C1313.94 871.049 1316.49 873.153 1319.44 874.108C1322.38 875.063 1325.53 874.806 1328.32 873.384C1328.89 873.094 1328.51 872.092 1327.95 872.382C1325.35 873.712 1322.42 873.951 1319.68 873.055C1316.93 872.159 1314.57 870.188 1313 867.498C1312.66 866.913 1311.91 867.589 1312.25 868.17Z" fill="white" id="id_109"></path>
<path d="M1286.29 873.921C1287.47 866.984 1290.93 860.804 1295.97 856.614C1296.47 856.199 1295.87 855.346 1295.38 855.76C1290.13 860.131 1286.55 866.571 1285.33 873.793C1285.22 874.482 1286.17 874.606 1286.29 873.921H1286.29Z" fill="white" id="id_110"></path>
<path d="M1333.88 848.005C1333.02 847.046 1332.38 845.86 1332.03 844.554C1331.67 843.248 1331.61 841.863 1331.85 840.524C1331.97 839.837 1331.01 839.714 1330.89 840.396C1330.64 841.877 1330.71 843.407 1331.1 844.85C1331.49 846.294 1332.18 847.608 1333.13 848.678C1333.21 848.787 1333.32 848.857 1333.45 848.874C1333.57 848.891 1333.7 848.853 1333.8 848.768C1333.9 848.679 1333.97 848.548 1333.98 848.405C1334 848.262 1333.96 848.119 1333.88 848.005H1333.88Z" fill="white" id="id_111"></path>
<path d="M1287.19 777.721C1289.94 797.895 1286.98 818.532 1278.73 836.701C1277.02 840.648 1274.76 844.265 1272.05 847.42C1269.32 850.398 1265.93 852.496 1262.24 853.497C1258.81 854.509 1255.2 855.097 1252.05 857.03C1250.45 858.047 1249.06 859.433 1247.97 861.098C1246.88 862.763 1246.12 864.669 1245.73 866.691C1244.64 871.702 1245.21 876.855 1245.92 881.873C1246.71 887.444 1247.61 893.217 1246.13 898.746C1245.95 899.416 1246.88 899.692 1247.06 899.023C1249.64 889.404 1245.32 879.7 1246.2 869.975C1246.61 865.437 1248.24 861.011 1251.76 858.485C1254.84 856.277 1258.56 855.667 1262.04 854.677C1265.66 853.759 1269.02 851.858 1271.83 849.138C1274.68 846.149 1277.05 842.635 1278.85 838.747C1283.03 830.068 1285.97 820.702 1287.57 810.992C1289.45 799.922 1289.63 788.571 1288.12 777.43C1288.02 776.74 1287.1 777.036 1287.19 777.721Z" fill="white" id="id_112"></path>
<path d="M1281.69 831.026C1284.58 832.173 1287.74 832.123 1290.6 830.886C1293.46 829.649 1295.84 827.305 1297.31 824.273C1297.61 823.658 1296.77 823.111 1296.48 823.727C1295.11 826.553 1292.9 828.736 1290.23 829.882C1287.56 831.028 1284.62 831.061 1281.94 829.975C1281.35 829.74 1281.11 830.793 1281.69 831.026Z" fill="white" id="id_113"></path>
<path d="M1264.04 853.242C1261.28 846.9 1260.74 839.618 1262.53 832.848C1262.7 832.178 1261.77 831.902 1261.59 832.572C1259.74 839.62 1260.32 847.197 1263.2 853.79C1263.48 854.418 1264.31 853.867 1264.04 853.242Z" fill="white" id="id_114"></path>
<path d="M1288.2 800.235C1287 800.054 1285.86 799.54 1284.88 798.739C1283.9 797.937 1283.11 796.874 1282.58 795.644C1282.31 795.012 1281.48 795.564 1281.75 796.191C1282.34 797.547 1283.21 798.721 1284.29 799.609C1285.37 800.497 1286.63 801.073 1287.96 801.286C1288.08 801.318 1288.21 801.296 1288.32 801.224C1288.43 801.152 1288.51 801.036 1288.54 800.899C1288.58 800.76 1288.56 800.612 1288.49 800.487C1288.43 800.363 1288.32 800.272 1288.2 800.235V800.235Z" fill="white" id="id_115"></path>
<path d="M1243.63 543.013H1231.37C1231.13 543.014 1230.9 543.123 1230.73 543.314C1230.56 543.505 1230.47 543.764 1230.47 544.035C1230.46 544.189 1230.5 544.341 1230.56 544.476C1230.64 544.649 1230.75 544.796 1230.89 544.899C1231.04 545.002 1231.2 545.057 1231.37 545.057H1243.63C1243.81 545.058 1243.97 545.004 1244.12 544.901C1244.27 544.798 1244.38 544.651 1244.46 544.476C1244.51 544.339 1244.54 544.187 1244.54 544.035C1244.54 543.901 1244.52 543.768 1244.47 543.644C1244.43 543.52 1244.36 543.407 1244.28 543.312C1244.19 543.217 1244.09 543.142 1243.98 543.09C1243.87 543.039 1243.75 543.013 1243.63 543.013Z" fill="white" id="id_116"></path>
<path d="M1243.63 546.854H1231.37C1231.13 546.854 1230.9 546.962 1230.73 547.154C1230.56 547.346 1230.47 547.606 1230.47 547.877C1230.47 548.148 1230.56 548.408 1230.73 548.6C1230.9 548.791 1231.13 548.899 1231.37 548.899H1243.63C1243.88 548.899 1244.11 548.791 1244.28 548.6C1244.45 548.408 1244.54 548.148 1244.54 547.877C1244.54 547.606 1244.45 547.346 1244.28 547.154C1244.11 546.962 1243.88 546.854 1243.63 546.854Z" fill="white" id="id_117"></path>
<path d="M736.221 540.716C737.77 540.716 739.025 539.3 739.025 537.553C739.025 535.806 737.77 534.39 736.221 534.39C734.671 534.39 733.416 535.806 733.416 537.553C733.416 539.3 734.671 540.716 736.221 540.716Z" fill="white" id="id_118"></path>
<path d="M746.867 540.716C748.416 540.716 749.672 539.3 749.672 537.553C749.672 535.806 748.416 534.39 746.867 534.39C745.318 534.39 744.062 535.806 744.062 537.553C744.062 539.3 745.318 540.716 746.867 540.716Z" fill="white" id="id_119"></path>
<path d="M757.514 540.716C759.064 540.716 760.319 539.3 760.319 537.553C760.319 535.806 759.064 534.39 757.514 534.39C755.965 534.39 754.709 535.806 754.709 537.553C754.709 539.3 755.965 540.716 757.514 540.716Z" fill="white" id="id_120"></path>
<path d="M915.61 676.297C917.159 676.297 918.415 674.881 918.415 673.134C918.415 671.387 917.159 669.971 915.61 669.971C914.061 669.971 912.805 671.387 912.805 673.134C912.805 674.881 914.061 676.297 915.61 676.297Z" fill="white" id="id_121"></path>
<path d="M926.257 676.297C927.806 676.297 929.062 674.881 929.062 673.134C929.062 671.387 927.806 669.971 926.257 669.971C924.707 669.971 923.452 671.387 923.452 673.134C923.452 674.881 924.707 676.297 926.257 676.297Z" fill="white" id="id_122"></path>
<path d="M936.904 676.297C938.453 676.297 939.709 674.881 939.709 673.134C939.709 671.387 938.453 669.971 936.904 669.971C935.355 669.971 934.099 671.387 934.099 673.134C934.099 674.881 935.355 676.297 936.904 676.297Z" fill="white" id="id_123"></path>
<g clip-path="url(#clip1_21_1048)">
<path d="M1144.61 969.374H149.969C143.179 969.366 136.67 966.429 131.869 961.209C127.068 955.989 124.367 948.91 124.359 941.528V274.638C124.365 269.229 126.343 264.043 129.861 260.219C133.378 256.394 138.147 254.243 143.121 254.236H1151.13C1156.19 254.243 1161.05 256.431 1164.62 260.322C1168.2 264.213 1170.21 269.488 1170.22 274.99V941.528C1170.21 948.91 1167.51 955.989 1162.71 961.209C1157.91 966.429 1151.4 969.366 1144.61 969.374V969.374Z" fill="#F2F2F2" id="id_124"></path>
<path d="M1112.45 934.216H185.472C171.883 934.216 160.828 922.96 160.828 909.124V328.387C160.828 318.126 169.02 309.777 179.089 309.777H1118.53C1128.77 309.777 1137.1 318.263 1137.1 328.694V909.124C1137.1 922.96 1126.04 934.216 1112.45 934.216Z" fill="white" id="id_125"></path>
<path d="M1169.86 278.108H124V263.931C124.01 256.523 126.721 249.423 131.54 244.186C136.359 238.95 142.89 236.006 149.703 236H1144.16C1150.97 236.006 1157.51 238.95 1162.32 244.186C1167.14 249.423 1169.85 256.523 1169.86 263.931V278.108Z" fill="#e80e53" id="id_126"></path>
<path d="M170.711 264.325C174.383 264.325 177.359 261.089 177.359 257.096C177.359 253.104 174.383 249.867 170.711 249.867C167.039 249.867 164.062 253.104 164.062 257.096C164.062 261.089 167.039 264.325 170.711 264.325Z" fill="white" id="id_127"></path>
<path d="M195.946 264.325C199.618 264.325 202.594 261.089 202.594 257.096C202.594 253.104 199.618 249.867 195.946 249.867C192.274 249.867 189.298 253.104 189.298 257.096C189.298 261.089 192.274 264.325 195.946 264.325Z" fill="white" id="id_128"></path>
<path d="M221.181 264.325C224.853 264.325 227.83 261.089 227.83 257.096C227.83 253.104 224.853 249.867 221.181 249.867C217.51 249.867 214.533 253.104 214.533 257.096C214.533 261.089 217.51 264.325 221.181 264.325Z" fill="white" id="id_129"></path>
<path d="M422.542 400.996H258.718C255.457 400.995 252.227 401.693 249.214 403.05C246.201 404.406 243.463 406.395 241.156 408.903C238.85 411.411 237.021 414.388 235.773 417.664C234.526 420.941 233.884 424.453 233.885 427.999V549.224C233.884 552.771 234.526 556.282 235.773 559.559C237.021 562.836 238.85 565.813 241.156 568.32C243.463 570.828 246.201 572.817 249.214 574.174C252.227 575.53 255.457 576.228 258.718 576.227H422.542C429.128 576.226 435.444 573.381 440.101 568.317C444.758 563.253 447.375 556.386 447.376 549.224V427.999C447.375 420.838 444.758 413.97 440.101 408.906C435.444 403.842 429.128 400.997 422.542 400.996V400.996Z" fill="#e01253" id="id_130"></path>
<path d="M538.094 427.993V549.233C538.094 556.394 540.71 563.263 545.367 568.327C550.024 573.391 556.341 576.236 562.927 576.236H726.747C733.334 576.236 739.65 573.391 744.307 568.327C748.964 563.263 751.581 556.394 751.581 549.233V427.993C751.581 420.831 748.964 413.963 744.307 408.899C739.65 403.835 733.334 400.99 726.747 400.99H562.927C556.341 400.99 550.024 403.835 545.367 408.899C540.71 413.963 538.094 420.831 538.094 427.993Z" fill="#e91e63" id="id_131"></path>
<path d="M842.304 427.993V549.233C842.304 556.394 844.921 563.263 849.578 568.327C854.235 573.391 860.551 576.236 867.138 576.236H1030.96C1037.54 576.236 1043.86 573.391 1048.52 568.327C1053.18 563.263 1055.79 556.394 1055.79 549.233V427.993C1055.79 420.831 1053.18 413.963 1048.52 408.899C1043.86 403.835 1037.54 400.99 1030.96 400.99H867.138C860.551 400.99 854.235 403.835 849.578 408.899C844.921 413.963 842.304 420.831 842.304 427.993Z" fill="#E6E6E6" id="id_132"></path>
<path d="M233.883 696.333V817.573C233.883 824.734 236.499 831.603 241.156 836.667C245.814 841.731 252.13 844.575 258.716 844.575H422.537C429.123 844.575 435.439 841.731 440.097 836.667C444.754 831.603 447.37 824.734 447.37 817.573V696.333C447.37 689.171 444.754 682.303 440.097 677.239C435.439 672.175 429.123 669.33 422.537 669.33H258.716C252.13 669.33 245.814 672.175 241.156 677.239C236.499 682.303 233.883 689.171 233.883 696.333Z" fill="#E6E6E6" id="id_133"></path>
<path d="M538.094 696.333V817.573C538.094 824.734 540.71 831.603 545.367 836.667C550.024 841.731 556.341 844.575 562.927 844.575H726.747C733.334 844.575 739.65 841.731 744.307 836.667C748.964 831.603 751.581 824.734 751.581 817.573V696.333C751.581 689.171 748.964 682.303 744.307 677.239C739.65 672.175 733.334 669.33 726.747 669.33H562.927C556.341 669.33 550.024 672.175 545.367 677.239C540.71 682.303 538.094 689.171 538.094 696.333Z" fill="#E6E6E6" id="id_134"></path>
<path d="M842.304 696.333V817.573C842.304 824.734 844.921 831.603 849.578 836.667C854.235 841.731 860.551 844.575 867.138 844.575H1030.96C1037.54 844.575 1043.86 841.731 1048.52 836.667C1053.18 831.603 1055.79 824.734 1055.79 817.573V696.333C1055.79 689.171 1053.18 682.303 1048.52 677.239C1043.86 672.175 1037.54 669.33 1030.96 669.33H867.138C860.551 669.33 854.235 672.175 849.578 677.239C844.921 682.303 842.304 689.171 842.304 696.333Z" fill="#e01b5a" id="id_135"></path>
<path d="M340.627 525.741C359.485 525.741 374.773 509.118 374.773 488.612C374.773 468.107 359.485 451.483 340.627 451.483C321.768 451.483 306.48 468.107 306.48 488.612C306.48 509.118 321.768 525.741 340.627 525.741Z" fill="white" id="id_136"></path>
<path d="M392.804 579.602H288.441C290.88 574.487 294.025 569.808 297.769 565.73C302.52 560.553 308.164 556.447 314.378 553.649C320.592 550.852 327.254 549.417 333.98 549.427H347.266C356.673 549.422 365.9 552.236 373.933 557.559C381.966 562.882 388.495 570.509 392.804 579.602V579.602Z" fill="white" id="id_137"></path>
<path d="M644.837 525.741C663.696 525.741 678.983 509.118 678.983 488.612C678.983 468.107 663.696 451.483 644.837 451.483C625.979 451.483 610.691 468.107 610.691 488.612C610.691 509.118 625.979 525.741 644.837 525.741Z" fill="white" id="id_138"></path>
<path d="M697.015 579.602H592.652C595.09 574.487 598.236 569.808 601.98 565.73C606.73 560.553 612.375 556.447 618.589 553.649C624.803 550.852 631.464 549.417 638.19 549.427H651.476C660.884 549.422 670.11 552.236 678.144 557.559C686.177 562.882 692.706 570.509 697.015 579.602V579.602Z" fill="white" id="id_139"></path>
<path d="M949.048 525.741C967.906 525.741 983.194 509.118 983.194 488.612C983.194 468.107 967.906 451.483 949.048 451.483C930.189 451.483 914.902 468.107 914.902 488.612C914.902 509.118 930.189 525.741 949.048 525.741Z" fill="white" id="id_140"></path>
<path d="M1001.23 579.602H896.863C899.301 574.487 902.447 569.808 906.191 565.73C910.941 560.553 916.586 556.447 922.8 553.649C929.014 550.852 935.675 549.417 942.401 549.427H955.687C965.095 549.422 974.321 552.236 982.354 557.559C990.388 562.882 996.917 570.509 1001.23 579.602V579.602Z" fill="white" id="id_141"></path>
<path d="M340.627 794.081C359.485 794.081 374.773 777.458 374.773 756.952C374.773 736.446 359.485 719.823 340.627 719.823C321.768 719.823 306.48 736.446 306.48 756.952C306.48 777.458 321.768 794.081 340.627 794.081Z" fill="white" id="id_142"></path>
<path d="M392.804 847.942H288.441C290.88 842.826 294.025 838.148 297.769 834.07C302.52 828.892 308.164 824.787 314.378 821.989C320.592 819.191 327.254 817.756 333.98 817.767H347.266C356.673 817.762 365.9 820.576 373.933 825.899C381.966 831.222 388.495 838.849 392.804 847.942V847.942Z" fill="white" id="id_143"></path>
<path d="M644.837 794.081C663.696 794.081 678.983 777.458 678.983 756.952C678.983 736.446 663.696 719.823 644.837 719.823C625.979 719.823 610.691 736.446 610.691 756.952C610.691 777.458 625.979 794.081 644.837 794.081Z" fill="white" id="id_144"></path>
<path d="M697.015 847.942H592.652C595.09 842.826 598.236 838.148 601.98 834.07C606.73 828.892 612.375 824.787 618.589 821.989C624.803 819.191 631.464 817.756 638.19 817.767H651.476C660.884 817.762 670.11 820.576 678.144 825.899C686.177 831.222 692.706 838.849 697.015 847.942V847.942Z" fill="white" id="id_145"></path>
<path d="M949.048 794.081C967.906 794.081 983.194 777.458 983.194 756.952C983.194 736.446 967.906 719.823 949.048 719.823C930.189 719.823 914.902 736.446 914.902 756.952C914.902 777.458 930.189 794.081 949.048 794.081Z" fill="white" id="id_146"></path>
<path d="M1001.23 847.942H896.863C899.301 842.826 902.447 838.148 906.191 834.07C910.941 828.892 916.586 824.787 922.8 821.989C929.014 819.191 935.675 817.756 942.401 817.767H955.687C965.095 817.762 974.321 820.576 982.354 825.899C990.388 831.222 996.917 838.849 1001.23 847.942V847.942Z" fill="white" id="id_147"></path>
<path d="M1373.45 1265H968.351C967.94 1265 967.545 1264.82 967.254 1264.51C966.963 1264.19 966.799 1263.76 966.799 1263.31C966.799 1262.87 966.963 1262.44 967.254 1262.12C967.545 1261.8 967.94 1261.62 968.351 1261.62H1373.45C1373.86 1261.62 1374.25 1261.8 1374.55 1262.12C1374.84 1262.44 1375 1262.87 1375 1263.31C1375 1263.76 1374.84 1264.19 1374.55 1264.51C1374.25 1264.82 1373.86 1265 1373.45 1265Z" fill="#3F3D56" id="id_148"></path>
<path d="M1165.01 1244.42L1145.99 1244.42L1136.93 1164.61L1165.02 1164.62L1165.01 1244.42Z" fill="#A0616A" id="id_149"></path>
<path d="M1132.39 1238.51H1169.09V1263.63H1109.29C1109.29 1260.33 1109.89 1257.07 1111.05 1254.02C1112.21 1250.97 1113.91 1248.2 1116.06 1245.87C1118.2 1243.53 1120.75 1241.68 1123.55 1240.42C1126.36 1239.16 1129.36 1238.51 1132.39 1238.51V1238.51Z" fill="#2F2E41" id="id_150"></path>
<path d="M1236.41 1244.42L1217.38 1244.42L1208.33 1164.61L1236.41 1164.62L1236.41 1244.42Z" fill="#A0616A" id="id_151"></path>
<path d="M1203.79 1238.51H1240.49V1263.63H1180.69C1180.69 1260.33 1181.28 1257.07 1182.44 1254.02C1183.61 1250.97 1185.31 1248.2 1187.45 1245.87C1189.6 1243.53 1192.15 1241.68 1194.95 1240.42C1197.75 1239.16 1200.76 1238.51 1203.79 1238.51V1238.51Z" fill="#2F2E41" id="id_152"></path>
<path d="M1234.09 1006.73C1232.04 1005.3 1230.3 1003.39 1229 1001.15C1227.7 998.908 1226.87 996.383 1226.57 993.754C1226.26 991.124 1226.49 988.454 1227.24 985.931C1227.98 983.408 1229.23 981.093 1230.89 979.15L1218.36 785.814L1254.45 789.62L1255.44 978.955C1258.26 982.2 1259.88 986.456 1260 990.917C1260.13 995.377 1258.74 999.732 1256.11 1003.16C1253.48 1006.58 1249.78 1008.84 1245.72 1009.49C1241.66 1010.15 1237.52 1009.17 1234.09 1006.73V1006.73Z" fill="#A0616A" id="id_153"></path>
<path d="M1164.12 1204.22L1143.17 1203.13C1141.38 1203.04 1139.7 1202.21 1138.46 1200.8C1137.23 1199.4 1136.53 1197.54 1136.52 1195.6C1130.99 1102.91 1123.35 1003.53 1135.05 965.135C1135.05 964.041 1135.26 962.958 1135.67 961.961C1136.09 960.963 1136.69 960.075 1137.45 959.356C1138.21 958.637 1139.1 958.105 1140.07 957.796C1141.03 957.487 1142.05 957.408 1143.04 957.565L1226.85 970.793C1228.5 971.045 1230.02 971.938 1231.12 973.308C1232.22 974.679 1232.82 976.434 1232.83 978.252C1243.53 1023.71 1244.01 1106.15 1243.61 1191.8C1243.61 1192.8 1243.44 1193.8 1243.09 1194.72C1242.74 1195.65 1242.23 1196.5 1241.58 1197.21C1240.93 1197.92 1240.16 1198.48 1239.31 1198.87C1238.45 1199.25 1237.54 1199.45 1236.62 1199.45H1214.04C1212.37 1199.46 1210.76 1198.82 1209.49 1197.64C1208.23 1196.46 1207.39 1194.83 1207.14 1193.04L1193.2 1096.73C1193 1095.32 1192.34 1094.04 1191.33 1093.12C1190.33 1092.2 1189.05 1091.71 1187.74 1091.74C1186.43 1091.76 1185.17 1092.31 1184.19 1093.26C1183.22 1094.22 1182.6 1095.53 1182.44 1096.94L1171.38 1197.53C1171.18 1199.37 1170.36 1201.07 1169.08 1202.3C1167.8 1203.54 1166.16 1204.22 1164.45 1204.23C1164.34 1204.23 1164.23 1204.22 1164.12 1204.22Z" fill="#2F2E41" id="id_154"></path>
<path d="M1178.86 978.262C1160.39 967.104 1145.96 964.172 1139.01 963.417C1138.08 963.32 1137.18 963.02 1136.37 962.535C1135.55 962.049 1134.84 961.389 1134.27 960.594C1133.68 959.793 1133.25 958.872 1133 957.885C1132.75 956.898 1132.69 955.867 1132.82 954.854L1152.9 792.751C1154.06 783.268 1157.43 774.264 1162.69 766.596C1167.95 758.928 1174.92 752.852 1182.95 748.944C1190.73 745.059 1199.29 743.401 1207.82 744.128C1216.35 744.855 1224.56 747.943 1231.68 753.098C1232.37 753.595 1233.05 754.104 1233.71 754.622C1241.91 761.156 1248.15 770.184 1251.64 780.568C1255.13 790.951 1255.72 802.226 1253.32 812.97C1241.01 867.744 1236.78 957.54 1236.06 974.985C1236 976.472 1235.54 977.908 1234.73 979.11C1233.93 980.313 1232.81 981.23 1231.53 981.744C1223.95 984.738 1215.96 986.286 1207.9 986.319C1197.74 986.386 1187.74 983.612 1178.86 978.262Z" fill="#3F3D56" id="id_155"></path>
<path d="M1226.53 850.778C1225.68 850.117 1224.98 849.258 1224.48 848.265C1223.99 847.271 1223.7 846.169 1223.64 845.039L1221 792.93C1220.74 787.767 1222.24 782.682 1225.22 778.655C1228.21 774.628 1232.45 771.944 1237.15 771.121C1241.84 770.297 1246.65 771.393 1250.65 774.196C1254.64 777 1257.54 781.312 1258.79 786.302L1270.4 832.891C1270.89 834.834 1270.64 836.907 1269.72 838.654C1268.8 840.401 1267.28 841.679 1265.49 842.208L1232.44 851.95C1231.44 852.248 1230.39 852.298 1229.36 852.095C1228.34 851.892 1227.37 851.442 1226.53 850.778V850.778Z" fill="#3F3D56" id="id_156"></path>
<path d="M1195.66 726.934C1216.71 726.934 1233.78 708.376 1233.78 685.483C1233.78 662.59 1216.71 644.032 1195.66 644.032C1174.61 644.032 1157.54 662.59 1157.54 685.483C1157.54 708.376 1174.61 726.934 1195.66 726.934Z" fill="#A0616A" id="id_157"></path>
<path d="M1057.52 766.922C1057.71 767.832 1057.83 768.758 1057.89 769.69L1124.56 811.513L1140.77 801.369L1158.04 825.962L1123.38 852.831L1047.31 787.581C1044.21 788.829 1040.83 789.021 1037.62 788.131C1034.42 787.24 1031.54 785.31 1029.37 782.597C1027.2 779.883 1025.84 776.516 1025.47 772.941C1025.1 769.366 1025.74 765.755 1027.31 762.586C1028.87 759.417 1031.29 756.842 1034.23 755.202C1037.18 753.563 1040.51 752.937 1043.79 753.407C1047.07 753.878 1050.14 755.423 1052.59 757.837C1055.04 760.251 1056.76 763.42 1057.52 766.922V766.922Z" fill="#A0616A" id="id_158"></path>
<path d="M1126.94 807.957C1126.83 806.831 1126.96 805.693 1127.3 804.626C1127.65 803.559 1128.21 802.59 1128.95 801.791L1162.88 764.884C1166.25 761.228 1170.73 759.055 1175.48 758.784C1180.23 758.512 1184.9 760.163 1188.6 763.416C1192.3 766.669 1194.75 771.295 1195.5 776.401C1196.24 781.508 1195.22 786.734 1192.64 791.071L1168.47 831.562C1167.46 833.249 1165.88 834.433 1164.06 834.852C1162.25 835.271 1160.36 834.892 1158.81 833.798L1130.09 813.532C1129.21 812.917 1128.48 812.098 1127.93 811.133C1127.39 810.168 1127.05 809.083 1126.94 807.957V807.957Z" fill="#3F3D56" id="id_159"></path>
<path d="M1222.64 718.278C1215.52 726.515 1202.32 722.093 1201.39 710.84C1201.32 709.967 1201.32 709.087 1201.41 708.215C1201.88 703.23 1204.53 698.705 1203.9 693.442C1203.75 692.132 1203.31 690.883 1202.59 689.815C1196.93 681.563 1183.62 693.506 1178.28 686.036C1175 681.455 1178.85 674.244 1176.33 669.124C1173.01 662.368 1163.17 665.701 1157 662.001C1150.14 657.883 1150.55 646.431 1155.07 639.466C1160.58 630.971 1170.24 626.438 1179.78 625.784C1189.33 625.131 1198.8 627.936 1207.71 631.71C1217.83 635.999 1227.87 641.927 1234.1 651.604C1241.67 663.372 1242.4 679.194 1238.61 692.955C1236.31 701.326 1228.44 711.552 1222.64 718.278Z" fill="#2F2E41" id="id_160"></path>
<path d="M458.701 1027.79C458.701 1069.91 382.377 1163.76 382.377 1163.76C382.377 1163.76 306.053 1069.91 306.053 1027.79C306.053 1007.56 314.094 988.153 328.408 973.848C342.721 959.543 362.135 951.506 382.377 951.506C402.619 951.506 422.033 959.543 436.346 973.848C450.66 988.153 458.701 1007.56 458.701 1027.79V1027.79Z" fill="#eb1a5c" id="id_161"></path>
<path d="M393.052 1050.41C404.415 1050.41 413.627 1041.21 413.627 1029.85C413.627 1018.49 404.415 1009.29 393.052 1009.29C381.689 1009.29 372.478 1018.49 372.478 1029.85C372.478 1041.21 381.689 1050.41 393.052 1050.41Z" fill="#F0F0F0" id="id_162"></path>
<ellipse rx="3.69023" ry="6.14701" transform="matrix(0.991597 -0.129364 0.129509 0.991578 1163.42 690.875)" fill="#2F2E41" id="id_163"></ellipse>
</g>
</g>
<defs>
<clipPath id="clip0_21_1048">
<rect width="1500" height="1500" fill="white" id="id_164"></rect>
</clipPath>
<clipPath id="clip1_21_1048">
<rect width="1251" height="1029" fill="white" transform="translate(124 236)" id="id_165"></rect>
</clipPath>
</defs>
</svg>