<svg width="1500" height="1500" viewBox="0 0 1500 1500" fill="none" xmlns="http://www.w3.org/2000/svg">
<g clip-path="url(#clip0_25_64)">
<path d="M648.834 835.321C659.306 851.968 674.163 864.471 691.295 871.054C694.96 872.545 698.812 873.376 702.707 873.514C706.505 873.511 710.233 872.361 713.504 870.183C716.589 868.222 719.544 865.813 722.999 864.732C724.775 864.208 726.629 864.113 728.439 864.454C730.249 864.795 731.976 865.563 733.504 866.709C737.379 869.452 740.148 873.602 742.731 877.766C745.599 882.39 748.514 887.243 752.991 890.05C753.533 890.39 753.034 891.32 752.492 890.98C744.702 886.096 741.818 875.738 735.188 869.441C732.094 866.503 728.196 864.598 724.107 865.547C720.532 866.378 717.483 868.859 714.373 870.875C711.21 873.052 707.623 874.323 703.924 874.576C700.035 874.661 696.162 874 692.47 872.62C684.114 869.663 676.223 865.242 669.085 859.521C660.906 853.042 653.771 845.033 647.987 835.84C647.629 835.271 648.479 834.756 648.834 835.321V835.321Z" fill="white" id="id_101"></path>
<path d="M685.668 869.3C684.298 872.392 681.998 874.834 679.18 876.19C676.361 877.546 673.207 877.728 670.28 876.703C669.688 876.493 669.949 875.447 670.542 875.657C673.265 876.617 676.204 876.447 678.826 875.178C681.449 873.909 683.583 871.625 684.843 868.738C685.118 868.111 685.941 868.677 685.668 869.3V869.3Z" fill="white" id="id_102"></path>
<path d="M712.055 871.41C710.125 864.689 706.02 859.035 700.558 855.575C700.017 855.233 700.517 854.304 701.057 854.646C706.735 858.257 710.996 864.151 712.991 871.15C713.18 871.817 712.244 872.073 712.055 871.41Z" fill="white" id="id_103"></path>
<path d="M661.996 852.289C662.747 851.217 663.25 849.952 663.46 848.607C663.671 847.262 663.581 845.879 663.2 844.582C663.003 843.918 663.94 843.663 664.136 844.323C664.551 845.757 664.648 847.285 664.419 848.771C664.189 850.258 663.641 851.659 662.82 852.851C662.752 852.971 662.645 853.057 662.522 853.091C662.399 853.125 662.269 853.105 662.159 853.035C662.05 852.96 661.972 852.839 661.941 852.7C661.911 852.56 661.93 852.412 661.996 852.289V852.289Z" fill="white" id="id_104"></path>
<path d="M711.942 828.203C709.198 829.742 706.059 830.13 703.084 829.299C700.109 828.468 697.494 826.472 695.704 823.666C695.343 823.097 696.111 822.439 696.471 823.009C698.134 825.625 700.571 827.484 703.342 828.251C706.113 829.019 709.037 828.644 711.584 827.194C712.138 826.88 712.493 827.891 711.942 828.203Z" fill="white" id="id_105"></path>
<path d="M731.885 847.803C733.933 841.127 733.674 833.826 731.16 827.355C730.91 826.714 731.805 826.311 732.054 826.951C734.66 833.69 734.915 841.289 732.771 848.231C732.566 848.893 731.682 848.461 731.885 847.803Z" fill="white" id="id_106"></path>
<path d="M702.124 798.548C703.296 798.202 704.373 797.534 705.259 796.602C706.145 795.671 706.812 794.506 707.201 793.213C707.398 792.548 708.282 792.981 708.086 793.641C707.652 795.068 706.914 796.353 705.937 797.385C704.96 798.416 703.774 799.162 702.482 799.557C702.363 799.606 702.232 799.602 702.116 799.545C702 799.489 701.907 799.385 701.856 799.254C701.809 799.121 701.811 798.971 701.861 798.839C701.912 798.707 702.006 798.602 702.124 798.548H702.124Z" fill="white" id="id_107"></path>
<path d="M1345.1 829.343C1336.52 847.315 1323.14 861.783 1306.85 870.691C1303.38 872.679 1299.65 874.036 1295.79 874.714C1292.02 875.237 1288.2 874.612 1284.72 872.905C1281.44 871.386 1278.25 869.405 1274.7 868.811C1272.88 868.537 1271.03 868.7 1269.27 869.289C1267.51 869.878 1265.88 870.88 1264.49 872.229C1260.94 875.489 1258.65 879.991 1256.54 884.481C1254.19 889.467 1251.83 894.688 1247.69 898.094C1247.19 898.507 1247.79 899.36 1248.29 898.948C1255.49 893.022 1257.22 882.342 1263.12 875.174C1265.87 871.829 1269.53 869.398 1273.69 869.774C1277.33 870.102 1280.62 872.142 1283.93 873.712C1287.31 875.434 1291 876.197 1294.7 875.936C1298.57 875.482 1302.34 874.288 1305.86 872.407C1313.83 868.314 1321.18 862.833 1327.64 856.166C1335.05 848.602 1341.26 839.665 1345.99 829.74C1346.29 829.126 1345.39 828.732 1345.1 829.343Z" fill="white" id="id_108"></path>
<path d="M1312.25 868.17C1313.94 871.049 1316.49 873.153 1319.44 874.108C1322.38 875.063 1325.53 874.806 1328.32 873.384C1328.89 873.094 1328.51 872.092 1327.95 872.382C1325.35 873.712 1322.42 873.951 1319.68 873.055C1316.93 872.159 1314.57 870.188 1313 867.498C1312.66 866.913 1311.91 867.589 1312.25 868.17Z" fill="white" id="id_109"></path>
<path d="M1286.29 873.921C1287.47 866.984 1290.93 860.804 1295.97 856.614C1296.47 856.199 1295.87 855.346 1295.38 855.76C1290.13 860.131 1286.55 866.571 1285.33 873.793C1285.22 874.482 1286.17 874.606 1286.29 873.921H1286.29Z" fill="white" id="id_110"></path>
<path d="M1333.88 848.005C1333.02 847.046 1332.38 845.86 1332.03 844.554C1331.67 843.248 1331.61 841.863 1331.85 840.524C1331.97 839.837 1331.01 839.714 1330.89 840.396C1330.64 841.877 1330.71 843.407 1331.1 844.85C1331.48 846.294 1332.18 847.608 1333.13 848.678C1333.21 848.787 1333.32 848.857 1333.45 848.874C1333.57 848.891 1333.7 848.853 1333.8 848.768C1333.9 848.679 1333.97 848.548 1333.98 848.405C1334 848.262 1333.96 848.119 1333.88 848.005H1333.88Z" fill="white" id="id_111"></path>
<path d="M1287.19 777.721C1289.94 797.895 1286.98 818.532 1278.73 836.701C1277.02 840.648 1274.76 844.265 1272.05 847.42C1269.32 850.398 1265.93 852.496 1262.24 853.497C1258.81 854.509 1255.2 855.097 1252.05 857.03C1250.45 858.047 1249.06 859.433 1247.97 861.098C1246.88 862.763 1246.12 864.669 1245.73 866.691C1244.64 871.702 1245.21 876.855 1245.92 881.873C1246.71 887.444 1247.61 893.217 1246.13 898.746C1245.95 899.416 1246.88 899.692 1247.06 899.023C1249.64 889.404 1245.32 879.7 1246.2 869.975C1246.61 865.437 1248.24 861.011 1251.76 858.485C1254.84 856.277 1258.56 855.667 1262.04 854.677C1265.66 853.759 1269.02 851.858 1271.83 849.138C1274.68 846.149 1277.05 842.635 1278.85 838.747C1283.03 830.068 1285.97 820.702 1287.57 810.992C1289.45 799.922 1289.63 788.571 1288.12 777.43C1288.02 776.74 1287.1 777.036 1287.19 777.721Z" fill="white" id="id_112"></path>
<path d="M1281.69 831.026C1284.58 832.173 1287.74 832.123 1290.6 830.886C1293.46 829.649 1295.84 827.305 1297.31 824.273C1297.61 823.658 1296.77 823.111 1296.48 823.727C1295.11 826.553 1292.9 828.736 1290.23 829.882C1287.56 831.028 1284.62 831.061 1281.94 829.975C1281.35 829.74 1281.11 830.793 1281.69 831.026Z" fill="white" id="id_113"></path>
<path d="M1264.04 853.242C1261.28 846.9 1260.74 839.618 1262.53 832.848C1262.7 832.178 1261.77 831.902 1261.59 832.572C1259.74 839.62 1260.32 847.197 1263.2 853.79C1263.48 854.418 1264.31 853.867 1264.04 853.242Z" fill="white" id="id_114"></path>
<path d="M1288.2 800.235C1287 800.054 1285.86 799.54 1284.88 798.739C1283.9 797.937 1283.11 796.874 1282.58 795.644C1282.31 795.012 1281.48 795.564 1281.75 796.191C1282.34 797.547 1283.21 798.721 1284.29 799.609C1285.37 800.497 1286.63 801.073 1287.96 801.286C1288.08 801.318 1288.21 801.296 1288.32 801.224C1288.43 801.152 1288.51 801.036 1288.54 800.899C1288.58 800.76 1288.56 800.612 1288.49 800.487C1288.43 800.363 1288.32 800.272 1288.2 800.235V800.235Z" fill="white" id="id_115"></path>
<path d="M1243.63 543.013H1231.37C1231.13 543.014 1230.9 543.123 1230.73 543.314C1230.56 543.505 1230.47 543.764 1230.47 544.035C1230.46 544.189 1230.5 544.341 1230.56 544.476C1230.64 544.649 1230.75 544.796 1230.89 544.899C1231.04 545.002 1231.2 545.057 1231.37 545.057H1243.63C1243.81 545.058 1243.97 545.004 1244.12 544.901C1244.27 544.798 1244.38 544.651 1244.46 544.476C1244.51 544.339 1244.54 544.187 1244.54 544.035C1244.54 543.901 1244.52 543.768 1244.47 543.644C1244.43 543.52 1244.36 543.407 1244.28 543.312C1244.19 543.217 1244.09 543.142 1243.98 543.09C1243.87 543.039 1243.75 543.013 1243.63 543.013Z" fill="white" id="id_116"></path>
<path d="M1243.63 546.854H1231.37C1231.13 546.854 1230.9 546.962 1230.73 547.154C1230.56 547.346 1230.47 547.606 1230.47 547.877C1230.47 548.148 1230.56 548.408 1230.73 548.6C1230.9 548.791 1231.13 548.899 1231.37 548.899H1243.63C1243.88 548.899 1244.11 548.791 1244.28 548.6C1244.45 548.408 1244.54 548.148 1244.54 547.877C1244.54 547.606 1244.45 547.346 1244.28 547.154C1244.11 546.962 1243.88 546.854 1243.63 546.854Z" fill="white" id="id_117"></path>
<path d="M736.221 540.716C737.77 540.716 739.025 539.3 739.025 537.553C739.025 535.806 737.77 534.39 736.221 534.39C734.671 534.39 733.416 535.806 733.416 537.553C733.416 539.3 734.671 540.716 736.221 540.716Z" fill="white" id="id_118"></path>
<path d="M746.867 540.716C748.417 540.716 749.672 539.3 749.672 537.553C749.672 535.806 748.417 534.39 746.867 534.39C745.318 534.39 744.062 535.806 744.062 537.553C744.062 539.3 745.318 540.716 746.867 540.716Z" fill="white" id="id_119"></path>
<path d="M757.514 540.716C759.064 540.716 760.319 539.3 760.319 537.553C760.319 535.806 759.064 534.39 757.514 534.39C755.965 534.39 754.709 535.806 754.709 537.553C754.709 539.3 755.965 540.716 757.514 540.716Z" fill="white" id="id_120"></path>
<path d="M915.61 676.297C917.159 676.297 918.415 674.881 918.415 673.134C918.415 671.387 917.159 669.971 915.61 669.971C914.061 669.971 912.805 671.387 912.805 673.134C912.805 674.881 914.061 676.297 915.61 676.297Z" fill="white" id="id_121"></path>
<path d="M926.257 676.297C927.806 676.297 929.062 674.881 929.062 673.134C929.062 671.387 927.806 669.971 926.257 669.971C924.707 669.971 923.452 671.387 923.452 673.134C923.452 674.881 924.707 676.297 926.257 676.297Z" fill="white" id="id_122"></path>
<path d="M936.904 676.297C938.453 676.297 939.709 674.881 939.709 673.134C939.709 671.387 938.453 669.971 936.904 669.971C935.354 669.971 934.099 671.387 934.099 673.134C934.099 674.881 935.354 676.297 936.904 676.297Z" fill="white" id="id_123"></path>
<path d="M606.554 1078.11C603.874 1078.11 601.253 1077.32 599.024 1075.83C596.795 1074.34 595.058 1072.22 594.032 1069.74C593.006 1067.27 592.737 1064.54 593.26 1061.91C593.783 1059.28 595.074 1056.87 596.97 1054.97C598.866 1053.07 601.281 1051.78 603.91 1051.26C606.539 1050.74 609.265 1051.01 611.741 1052.03C614.218 1053.06 616.335 1054.8 617.824 1057.02C619.314 1059.25 620.109 1061.87 620.109 1064.56C620.105 1068.15 618.675 1071.6 616.134 1074.14C613.593 1076.68 610.148 1078.11 606.554 1078.11ZM606.554 1053.26C604.32 1053.26 602.136 1053.92 600.279 1055.16C598.421 1056.4 596.974 1058.17 596.119 1060.23C595.264 1062.3 595.04 1064.57 595.476 1066.76C595.912 1068.95 596.988 1070.96 598.567 1072.54C600.147 1074.12 602.16 1075.2 604.351 1075.64C606.542 1076.07 608.813 1075.85 610.877 1074.99C612.941 1074.14 614.705 1072.69 615.946 1070.83C617.187 1068.97 617.85 1066.79 617.85 1064.56C617.846 1061.56 616.655 1058.69 614.538 1056.57C612.42 1054.45 609.549 1053.26 606.554 1053.26Z" fill="#3F3D56" id="id_124"></path>
<g clip-path="url(#clip1_25_64)">
<path d="M588.949 1033.03H202.712C188.821 1033.01 175.503 1027.66 165.68 1018.14C155.858 1008.63 150.333 995.723 150.317 982.264V455.812C150.317 327.99 257.644 224 389.569 224H588.95C602.841 224.015 616.159 229.368 625.981 238.885C635.804 248.402 641.329 261.306 641.344 274.765V982.264C641.329 995.723 635.804 1008.63 625.981 1018.14C616.158 1027.66 602.841 1033.01 588.949 1033.03V1033.03Z" fill="#F2F2F2" id="id_125"></path>
<path d="M216.218 681.515C210.367 681.521 204.758 683.776 200.621 687.784C196.484 691.793 194.157 697.227 194.15 702.896V823.059C194.157 828.727 196.484 834.162 200.621 838.171C204.758 842.179 210.367 844.434 216.218 844.441H591.569C597.419 844.434 603.028 842.179 607.165 838.171C611.302 834.162 613.629 828.727 613.636 823.059V702.896C613.629 697.227 611.302 691.793 607.165 687.784C603.028 683.776 597.419 681.521 591.569 681.515H216.218Z" fill="white" id="id_126"></path>
<path d="M592.471 603.556H217.122C210.792 603.549 204.723 601.11 200.247 596.773C195.771 592.436 193.253 586.556 193.246 580.423C193.29 542.431 208.887 506.008 236.613 479.144C264.339 452.28 301.932 437.169 341.143 437.126H592.472C598.802 437.133 604.871 439.572 609.347 443.909C613.823 448.246 616.341 454.126 616.348 460.259V580.422C616.341 586.555 613.823 592.435 609.347 596.772C604.871 601.109 598.802 603.549 592.471 603.556V603.556Z" fill="white" id="id_127"></path>
<path d="M754.076 826.006H321.987C319.447 826.003 317.012 825.024 315.217 823.284C313.421 821.544 312.411 819.185 312.408 816.724V706.416C312.411 703.955 313.421 701.596 315.217 699.856C317.013 698.116 319.447 697.137 321.987 697.135H754.076C756.615 697.137 759.05 698.116 760.846 699.856C762.642 701.596 763.652 703.955 763.655 706.416V816.724C763.652 819.185 762.642 821.544 760.846 823.284C759.05 825.024 756.615 826.003 754.076 826.006Z" fill="white" id="id_128"></path>
<path d="M754.076 827.758H321.987C318.968 827.754 316.074 826.591 313.939 824.522C311.804 822.454 310.604 819.65 310.6 816.725V706.416C310.604 703.491 311.804 700.686 313.939 698.618C316.074 696.55 318.968 695.386 321.987 695.383H754.076C757.095 695.386 759.99 696.55 762.124 698.618C764.259 700.686 765.46 703.491 765.463 706.416V816.725C765.46 819.65 764.259 822.454 762.124 824.522C759.99 826.591 757.095 827.754 754.076 827.758V827.758ZM321.987 698.887C319.927 698.889 317.952 699.683 316.495 701.095C315.038 702.506 314.219 704.42 314.216 706.416V816.725C314.219 818.721 315.038 820.634 316.495 822.046C317.952 823.458 319.927 824.252 321.987 824.254H754.076C756.136 824.252 758.111 823.458 759.568 822.046C761.025 820.634 761.845 818.721 761.847 816.725V706.416C761.845 704.42 761.025 702.506 759.568 701.095C758.111 699.683 756.136 698.889 754.076 698.887L321.987 698.887Z" fill="#CCCCCC" id="id_129"></path>
<path d="M358.729 749.42C367.314 749.42 374.274 742.677 374.274 734.359C374.274 726.041 367.314 719.298 358.729 719.298C350.144 719.298 343.185 726.041 343.185 734.359C343.185 742.677 350.144 749.42 358.729 749.42Z" fill="#e01660" id="id_130"></path>
<path d="M728.248 772.312H347.814C346.586 772.312 345.409 771.84 344.541 770.999C343.673 770.158 343.185 769.017 343.185 767.828C343.185 766.638 343.673 765.497 344.541 764.656C345.409 763.815 346.586 763.343 347.814 763.343H728.248C729.475 763.343 730.653 763.815 731.521 764.656C732.389 765.497 732.877 766.638 732.877 767.828C732.877 769.017 732.389 770.158 731.521 770.999C730.653 771.84 729.475 772.312 728.248 772.312Z" fill="#d90754" id="id_131"></path>
<path d="M690.447 790.035H347.814C347.205 790.036 346.602 789.921 346.039 789.696C345.477 789.471 344.965 789.141 344.534 788.724C344.104 788.308 343.762 787.813 343.529 787.268C343.295 786.723 343.175 786.139 343.175 785.55C343.175 784.96 343.295 784.376 343.529 783.831C343.762 783.286 344.104 782.792 344.534 782.375C344.965 781.958 345.477 781.628 346.039 781.403C346.602 781.178 347.205 781.063 347.814 781.064H690.447C691.674 781.064 692.852 781.537 693.72 782.378C694.588 783.219 695.076 784.36 695.076 785.55C695.076 786.739 694.588 787.88 693.72 788.721C692.852 789.562 691.674 790.035 690.447 790.035V790.035Z" fill="#de105b" id="id_132"></path>
<path d="M1230.88 1081.51L883.503 832.547C881.463 831.081 880.106 828.891 879.731 826.457C879.355 824.024 879.991 821.545 881.499 819.565L949.203 730.882C950.716 728.905 952.976 727.59 955.487 727.226C957.999 726.862 960.557 727.478 962.601 728.94L1309.98 977.904C1312.02 979.37 1313.38 981.559 1313.76 983.993C1314.13 986.427 1313.5 988.905 1311.99 990.885L1244.28 1079.57C1242.77 1081.55 1240.51 1082.86 1238 1083.22C1235.49 1083.59 1232.93 1082.97 1230.88 1081.51V1081.51Z" fill="white" id="id_133"></path>
<path d="M1229.81 1082.92L882.428 833.955C880.003 832.213 878.39 829.61 877.943 826.717C877.497 823.824 878.253 820.877 880.045 818.524L947.75 729.84C949.548 727.49 952.234 725.928 955.22 725.495C958.206 725.062 961.247 725.794 963.676 727.531L1311.06 976.496C1313.48 978.238 1315.1 980.841 1315.54 983.734C1315.99 986.627 1315.23 989.574 1313.44 991.927L1245.74 1080.61C1243.94 1082.96 1241.25 1084.52 1238.27 1084.96C1235.28 1085.39 1232.24 1084.66 1229.81 1082.92V1082.92ZM961.526 730.348C959.868 729.163 957.793 728.663 955.755 728.958C953.718 729.254 951.884 730.32 950.657 731.924L882.953 820.607C881.729 822.214 881.214 824.224 881.519 826.199C881.823 828.173 882.924 829.949 884.579 831.138L1231.96 1080.1C1233.62 1081.29 1235.69 1081.79 1237.73 1081.49C1239.77 1081.2 1241.6 1080.13 1242.83 1078.53L1310.53 989.843C1311.76 988.237 1312.27 986.226 1311.97 984.252C1311.66 982.278 1310.56 980.502 1308.91 979.313L961.526 730.348Z" fill="#CCCCCC" id="id_134"></path>
<path d="M969.293 795.098C977.878 795.098 984.837 788.355 984.837 780.037C984.837 771.719 977.878 764.976 969.293 764.976C960.708 764.976 953.748 771.719 953.748 780.037C953.748 788.355 960.708 795.098 969.293 795.098Z" fill="#d60753" id="id_135"></path>
<path d="M1243.08 1023.46L937.223 804.26C936.236 803.553 935.579 802.495 935.398 801.319C935.216 800.142 935.524 798.944 936.254 797.988C936.984 797.031 938.076 796.395 939.291 796.219C940.505 796.043 941.741 796.342 942.728 797.049L1248.58 1016.25C1249.07 1016.6 1249.48 1017.04 1249.8 1017.55C1250.11 1018.05 1250.32 1018.61 1250.41 1019.19C1250.5 1019.78 1250.47 1020.37 1250.32 1020.94C1250.17 1021.51 1249.91 1022.05 1249.55 1022.52C1249.19 1023 1248.73 1023.4 1248.21 1023.7C1247.69 1024 1247.11 1024.2 1246.51 1024.29C1245.91 1024.38 1245.3 1024.35 1244.71 1024.21C1244.12 1024.07 1243.56 1023.81 1243.08 1023.46V1023.46Z" fill="#c7064d" id="id_136"></path>
<path d="M1201.81 1015.93L926.345 818.508C925.856 818.158 925.444 817.718 925.13 817.213C924.817 816.708 924.61 816.148 924.52 815.566C924.338 814.389 924.646 813.191 925.376 812.235C926.106 811.279 927.199 810.642 928.413 810.466C929.627 810.29 930.864 810.589 931.851 811.296L1207.31 1008.72C1208.3 1009.43 1208.96 1010.48 1209.14 1011.66C1209.32 1012.84 1209.01 1014.03 1208.28 1014.99C1207.55 1015.95 1206.46 1016.58 1205.25 1016.76C1204.03 1016.94 1202.79 1016.64 1201.81 1015.93L1201.81 1015.93Z" fill="#d90955" id="id_137"></path>
<path d="M1068.67 819.406C1066.76 817.92 1065.21 816.05 1064.12 813.925C1063.03 811.8 1062.42 809.47 1062.35 807.097C1062.28 804.725 1062.75 802.366 1063.71 800.183C1064.67 798 1066.11 796.047 1067.93 794.457L1040.55 717.2L1060.74 704.606L1092.57 796.596C1095.11 799.762 1096.35 803.718 1096.08 807.716C1095.8 811.714 1094.03 815.475 1091.08 818.286C1088.13 821.098 1084.23 822.765 1080.1 822.971C1075.97 823.178 1071.9 821.909 1068.67 819.406V819.406Z" fill="#FFB6B6" id="id_138"></path>
<path d="M1045.3 606.243C1050.14 626.067 1057.36 643.383 1056.38 651.7C1055.41 659.993 1065.87 667.962 1062.55 674.518C1059.23 681.09 1069.44 681.793 1066.68 692.37C1063.91 702.969 1062.11 705.236 1064.45 706.98C1066.81 708.718 1079.26 749.173 1079.26 749.173L1071.95 751.765L1050.65 759.297L1000.58 679.504L1000.73 581.562L1013.16 581.176C1016.14 582.26 1019.45 583.561 1022.75 585.129C1032.82 589.839 1043.01 596.802 1045.3 606.243Z" fill="#E6E6E6" id="id_139"></path>
<path d="M860.925 1227.7L834.888 1227.7L822.5 1130.39L860.929 1130.4L860.925 1227.7Z" fill="#FFB6B6" id="id_140"></path>
<path d="M782.336 1264.93C782.348 1267.75 783.511 1270.46 785.572 1272.46C787.632 1274.46 790.424 1275.59 793.341 1275.61H842.356L843.875 1272.56L850.808 1258.7L853.493 1272.56L854.087 1275.61H872.575L872.311 1272.54L867.381 1215.26L860.932 1214.88L833.068 1213.28L826.223 1212.87V1229.97C821.029 1235.33 780.267 1255.56 782.336 1264.93Z" fill="#2F2E41" id="id_141"></path>
<path d="M1165.97 1200.24L1143.32 1212.69L1082.99 1133.98L1116.41 1115.61L1165.97 1200.24Z" fill="#FFB6B6" id="id_142"></path>
<path d="M1116.57 1270.19C1118.01 1272.65 1120.4 1274.46 1123.22 1275.22C1126.03 1275.97 1129.04 1275.61 1131.58 1274.22L1134.16 1272.82H1134.18L1174.22 1250.79L1172.94 1232.04L1184.43 1245.18L1192.9 1240.51L1200.5 1236.33L1193.78 1226.82L1165.24 1186.32L1159.43 1189.09L1134.36 1201.01L1128.24 1203.94L1136.93 1218.8C1135.15 1225.96 1110.01 1263.03 1116.57 1270.19Z" fill="#2F2E41" id="id_143"></path>
<path d="M990.14 750.043C1025.03 772.444 1059.57 987.67 1050.51 984.156L1132.75 1132.65L1015.69 1183.49L938.723 924.561L925.896 1019.85L942.999 1171.07L867.336 1188.79L815.002 1185.17C828.601 1004.92 862.554 814.819 890.693 741.283L990.14 750.043Z" fill="#2F2E41" id="id_144"></path>
<path d="M1016.63 766.026L1017.01 767.41C980.125 787.294 952.298 800.416 911.977 788.38L885.181 765.01L872.687 718.322L873.464 600.595C873.493 596.074 874.482 591.606 876.368 587.471C878.254 583.335 880.997 579.619 884.427 576.554C887.857 573.488 891.901 571.139 896.307 569.651C900.714 568.163 905.389 567.568 910.042 567.904L936.55 548.879L974.285 550.14L999.527 577.154L1014.61 582.375L1026.32 586.422C1028.69 588.489 1031.28 590.872 1033.75 593.5L1015.22 700.365L1007.34 732.32L1016.63 766.026Z" fill="#E6E6E6" id="id_145"></path>
<path d="M978.712 538.835C1002.14 526.35 1010.69 497.826 997.806 475.123C984.921 452.421 955.481 444.138 932.05 456.623C908.619 469.108 900.07 497.632 912.955 520.335C925.841 543.037 955.281 551.32 978.712 538.835Z" fill="#FFB6B6" id="id_146"></path>
<path d="M1019.04 481.386C1018.9 481.439 1018.77 481.492 1018.63 481.545C1018.35 481.663 1018.07 481.763 1017.78 481.845C1015.93 482.502 1014.01 482.93 1012.05 483.12C1011.22 483.207 1010.38 483.25 1009.54 483.249C1008.46 483.252 1007.39 483.185 1006.32 483.046C1005.13 482.905 1003.96 482.674 1002.81 482.354C1002.26 482.213 1001.73 482.044 1001.2 481.85C997.604 480.613 994.355 478.585 991.706 475.926C989.057 473.266 987.081 470.048 985.934 466.523V466.506C985.811 466.161 985.708 465.811 985.623 465.456C985.086 463.484 984.813 461.453 984.812 459.414V459.378C984.799 454.405 986.399 449.554 989.387 445.51C991.188 443.035 993.27 442.622 992.102 439.792C988.378 430.766 1003.61 423.387 1012.61 427.356C1012.93 427.326 1013.26 427.313 1013.59 427.318C1019.64 427.303 1021.89 435.97 1025.5 440.849L1025.4 440.882C1024.48 441.192 1023.69 441.771 1023.13 442.539C1022.57 443.306 1022.28 444.223 1022.28 445.162C1022.29 446.101 1022.6 447.014 1023.17 447.774C1023.74 448.534 1024.54 449.103 1025.46 449.401C1027.86 450.16 1030.29 450.831 1032.74 451.413C1040.84 460.675 1031.56 487.771 1019.04 481.386Z" fill="#2F2E41" id="id_147"></path>
<path d="M1014.59 506.222C1011.92 516.091 1006.99 525.721 998.816 532.136C990.624 538.55 952.096 553.746 948.844 540.737C951.019 549.824 949.708 553.296 946.209 556.546C945.61 555.759 944.975 555.007 944.323 554.273C941.918 551.589 939.033 549.346 935.807 547.654C935.723 553.143 936.131 558.628 937.025 564.049C935.583 565.338 934.211 566.698 932.913 568.124C926.682 550.129 913.025 528.577 922.913 512.192C926.837 505.69 923.565 504.799 920.089 504.053C914.021 502.75 910.674 478.621 909.231 472.756C907.44 465.402 906.73 456.942 911.434 450.904C916.137 444.866 928.034 444.609 930.44 451.803L935.449 445.204C941.922 431.401 959.107 434.162 974.643 435.946C990.18 437.712 1003.9 448.295 1010.89 461.855C1017.87 475.415 1018.55 491.548 1014.59 506.222Z" fill="#2F2E41" id="id_148"></path>
<path d="M990.095 443.169C989.765 451.492 991.967 459.726 996.428 466.847C1000.89 473.968 1007.41 479.662 1015.18 483.221C1018.34 484.606 1021.09 480.071 1017.91 478.676C1010.96 475.572 1005.13 470.538 1001.14 464.214C997.154 457.889 995.198 450.56 995.519 443.156C995.7 439.775 990.275 439.799 990.095 443.169L990.095 443.169Z" fill="#de0b59" id="id_149"></path>
<path d="M765.99 770.339C768.351 769.705 770.541 768.581 772.409 767.045C774.277 765.51 775.779 763.599 776.81 761.446C777.841 759.293 778.378 756.948 778.382 754.575C778.386 752.201 777.858 749.855 776.834 747.698L833.463 687.182L820.038 667.891L753.321 740.243C749.703 742.183 746.945 745.341 745.57 749.119C744.194 752.898 744.297 757.034 745.859 760.743C747.42 764.453 750.332 767.479 754.043 769.248C757.753 771.016 762.004 771.405 765.991 770.339H765.99Z" fill="#FFB6B6" id="id_150"></path>
<path d="M926.963 574.014C926.963 574.014 886.799 567.025 874.281 583.407C861.764 599.788 848.078 612.929 845.588 620.936C843.098 628.942 830.247 632.252 830.627 639.555C831.008 646.858 821.327 643.596 819.563 654.383C817.799 665.17 818.525 667.951 815.655 668.654C812.785 669.358 784.882 701.762 784.882 701.762L807.041 722.005L885.539 667.831L926.963 574.014Z" fill="#E6E6E6" id="id_151"></path>
<path d="M565.486 328.074C588.084 328.074 606.403 310.324 606.403 288.428C606.403 266.533 588.084 248.783 565.486 248.783C542.887 248.783 524.568 266.533 524.568 288.428C524.568 310.324 542.887 328.074 565.486 328.074Z" fill="#e30959" id="id_152"></path>
<path d="M565.485 309.756C565.024 309.756 564.581 309.578 564.254 309.262C563.928 308.945 563.744 308.516 563.744 308.069V269.028C563.744 268.58 563.928 268.151 564.254 267.835C564.581 267.519 565.024 267.341 565.485 267.341C565.947 267.341 566.39 267.519 566.717 267.835C567.043 268.151 567.227 268.58 567.227 269.028V308.069C567.227 308.516 567.043 308.945 566.717 309.262C566.39 309.578 565.947 309.756 565.485 309.756V309.756Z" fill="white" id="id_153"></path>
<path d="M585.633 290.235H545.339C544.877 290.235 544.434 290.058 544.108 289.741C543.781 289.425 543.598 288.996 543.598 288.548C543.598 288.101 543.781 287.672 544.108 287.355C544.434 287.039 544.877 286.861 545.339 286.861H585.633C586.094 286.861 586.537 287.039 586.864 287.355C587.19 287.672 587.374 288.101 587.374 288.548C587.374 288.996 587.19 289.425 586.864 289.741C586.537 290.058 586.094 290.235 585.633 290.235V290.235Z" fill="white" id="id_154"></path>
<path d="M1201.61 1275.22L1201.37 1273.97C1197.44 1252.98 1198.27 1231.41 1203.82 1210.76C1209.36 1190.11 1219.48 1170.87 1233.47 1154.4C1241.39 1145.21 1250.47 1137.03 1260.51 1130.05L1261.46 1129.38L1261.88 1130.45C1266.87 1143.2 1273.17 1155.96 1276.04 1161.61L1277.98 1119.43L1279.08 1118.86C1284.15 1116.23 1289.91 1115.13 1295.62 1115.71C1301.34 1116.28 1306.74 1118.49 1311.15 1122.07C1315.7 1125.62 1319.06 1130.4 1320.78 1135.81C1322.5 1141.22 1322.51 1147.01 1320.81 1152.42C1319.3 1157.38 1317.88 1162.52 1316.51 1167.49C1311.78 1184.58 1306.9 1202.24 1297.43 1217.12C1290.15 1228.31 1280.38 1237.78 1268.84 1244.85C1257.29 1251.92 1244.27 1256.4 1230.71 1257.96L1201.61 1275.22Z" fill="#F2F2F2" id="id_155"></path>
<path d="M1350 1274.91C1350 1275.19 1349.95 1275.46 1349.84 1275.71C1349.73 1275.97 1349.57 1276.2 1349.37 1276.39C1349.17 1276.58 1348.93 1276.74 1348.67 1276.84C1348.41 1276.95 1348.13 1277 1347.85 1277H152.152C151.581 1277 151.034 1276.78 150.63 1276.39C150.227 1276 150 1275.47 150 1274.91C150 1274.36 150.227 1273.83 150.63 1273.44C151.034 1273.05 151.581 1272.83 152.152 1272.83H1347.85C1348.13 1272.83 1348.41 1272.88 1348.67 1272.99C1348.93 1273.09 1349.17 1273.25 1349.37 1273.44C1349.57 1273.63 1349.73 1273.86 1349.84 1274.12C1349.95 1274.37 1350 1274.64 1350 1274.91V1274.91Z" fill="#CCCCCC" id="id_156"></path>
<path d="M548.213 1205.09L261.406 1063.41C254.809 1060.15 251.951 1056.28 255.011 1054.76L329.417 1018.01C332.491 1016.5 340.321 1017.91 346.923 1021.17L633.729 1162.85C640.325 1166.1 643.184 1169.97 640.125 1171.49L565.719 1208.25C562.643 1209.76 554.813 1208.35 548.213 1205.09Z" fill="white" id="id_157"></path>
<path opacity="0.997" d="M345.787 1079.43C364.327 1079.43 379.358 1072.01 379.358 1062.85C379.358 1053.69 364.327 1046.27 345.787 1046.27C327.246 1046.27 312.216 1053.69 312.216 1062.85C312.216 1072.01 327.246 1079.43 345.787 1079.43Z" fill="#eb0559" id="id_158"></path>
<path d="M548.213 1205.09L261.406 1063.41C254.809 1060.15 251.951 1056.28 255.011 1054.76L329.417 1018.01C332.491 1016.5 340.321 1017.91 346.923 1021.17L633.729 1162.85C640.325 1166.1 643.184 1169.97 640.125 1171.49L565.719 1208.25C562.643 1209.76 554.813 1208.35 548.213 1205.09ZM344.699 1022.26C340.741 1020.31 336.04 1019.46 334.196 1020.37L259.79 1057.12C257.951 1058.03 259.671 1060.35 263.628 1062.31L550.435 1203.99C554.393 1205.95 559.094 1206.79 560.938 1205.89L635.345 1169.13C637.184 1168.22 635.463 1165.9 631.507 1163.94L344.699 1022.26Z" fill="#E6E6E6" id="id_159"></path>
<path d="M406.713 1078.04C405.713 1077.55 404.357 1077.27 402.942 1077.27C401.528 1077.27 400.171 1077.55 399.171 1078.04C398.171 1078.54 397.609 1079.21 397.609 1079.91C397.609 1080.6 398.171 1081.27 399.171 1081.77L579.329 1170.77C580.329 1171.26 581.686 1171.54 583.1 1171.54C584.515 1171.54 585.871 1171.26 586.872 1170.77C587.872 1170.27 588.434 1169.6 588.434 1168.9C588.434 1168.2 587.872 1167.53 586.872 1167.04L406.713 1078.04Z" fill="#db0d58" id="id_160"></path>
<path d="M384.086 1089.22C383.591 1088.98 383.003 1088.78 382.356 1088.65C381.709 1088.52 381.016 1088.45 380.315 1088.45C379.615 1088.45 378.921 1088.52 378.274 1088.65C377.627 1088.78 377.039 1088.98 376.544 1089.22C376.049 1089.47 375.656 1089.76 375.388 1090.08C375.12 1090.4 374.982 1090.74 374.982 1091.08C374.982 1091.43 375.12 1091.77 375.388 1092.09C375.656 1092.41 376.049 1092.7 376.544 1092.95L556.702 1181.94C557.702 1182.44 559.059 1182.72 560.473 1182.72C561.888 1182.72 563.244 1182.44 564.244 1181.94C565.245 1181.45 565.806 1180.78 565.806 1180.08C565.806 1179.38 565.245 1178.71 564.244 1178.22L384.086 1089.22Z" fill="#db0956" id="id_161"></path>
</g>
</g>
<defs>
<clipPath id="clip0_25_64">
<rect width="1500" height="1500" fill="white" id="id_162"></rect>
</clipPath>
<clipPath id="clip1_25_64">
<rect width="1200" height="1053" fill="white" transform="translate(150 224)" id="id_163"></rect>
</clipPath>
</defs>
</svg>